<svg width="1443" height="383" viewBox="0 0 1443 383" fill="none" xmlns="http://www.w3.org/2000/svg">
<g clip-path="url(#clip0_416_105)">
<rect width="1440" height="383" fill="#CDAF44"/>
<rect x="349.953" y="326.372" width="57.9656" height="58.3846" fill="#EFE6C5"/>
<rect x="929.027" y="334.545" width="195.344" height="49.0431" fill="#EFE6C5"/>
<rect x="764.984" y="338.632" width="195.344" height="46.1238" fill="#EFE6C5"/>
<path d="M559.207 291.341H754.551V384.756H559.207V291.341Z" fill="#EFE6C5"/>
<rect x="468.199" y="325.788" width="77.0943" height="58.3846" fill="#EFE6C5"/>
<path fill-rule="evenodd" clip-rule="evenodd" d="M370.777 220.08V188H378.74V220.08H370.777Z" fill="#142938"/>
<path fill-rule="evenodd" clip-rule="evenodd" d="M390.682 208.05H358.832V200.03H390.682V208.05Z" fill="#142938"/>
<path d="M303 330.527C303 326.836 305.903 323.622 311.078 322.506L351.468 312.479V384.671H303C303 384.671 303 334.218 303 330.527Z" fill="#142938"/>
<path d="M446.346 330.527C446.346 326.836 443.725 323.622 439.051 322.506L402.578 312.479V384.671H446.346C446.346 384.671 446.346 334.218 446.346 330.527Z" fill="#142938"/>
<path fill-rule="evenodd" clip-rule="evenodd" d="M346.875 384.642V258.646C346.875 253.285 349.971 250.604 349.971 250.604L374.736 229.158L399.501 250.604C399.501 250.604 402.596 253.285 402.596 258.646V384.642H386.676V350.725C386.676 341.841 381.33 341.149 374.736 341.149C368.141 341.149 362.795 341.841 362.795 350.725V384.642H346.875Z" fill="#142938"/>
<rect x="365.449" y="220.012" width="18.9865" height="19.1238" fill="#142938"/>
<path d="M503.15 302.436C503.385 302.365 503.635 302.365 503.869 302.436L551.339 316.723C552.714 317.137 552.416 319.165 550.98 319.165H456.039C454.603 319.165 454.305 317.137 455.68 316.723L503.15 302.436Z" fill="#142938"/>
<rect x="497.109" y="293.181" width="16.51" height="24.1126" fill="#142938"/>
<path fill-rule="evenodd" clip-rule="evenodd" d="M454.598 321.451H556.96V384.643H454.598V321.451ZM473.172 331.844H483.2V348.224H473.172V331.844ZM510.552 331.844H500.523V348.224H510.552V331.844ZM527.875 331.844H537.903V348.224H527.875V331.844ZM483.2 359.698H473.172V376.078H483.2V359.698ZM500.523 359.698H510.552V376.078H500.523V359.698ZM537.903 359.698H527.875V376.078H537.903V359.698Z" fill="#142938"/>
<path d="M658.941 262.872C659.059 262.846 659.181 262.846 659.3 262.872L761.61 285.51C762.581 285.724 762.424 287.153 761.43 287.153H556.81C555.816 287.153 555.66 285.724 556.63 285.51L658.941 262.872Z" fill="#142938"/>
<path fill-rule="evenodd" clip-rule="evenodd" d="M556.969 290.271H761.693V384.643H556.969V290.271ZM572.652 343.069H592.052V384.642H572.652V343.069ZM750.138 343.069H730.738V384.642H750.138V343.069ZM610.211 337.665H625.483V362.609H610.211V337.665ZM667.135 337.665H651.863V362.609H667.135V337.665ZM693.516 337.665H708.787V362.609H693.516V337.665ZM587.1 298.17H571.828V323.114H587.1V298.17ZM611.828 298.17H627.1V323.114H611.828V298.17ZM667.1 298.17H651.828V323.114H667.1V298.17ZM691.828 298.17H707.1V323.114H691.828V298.17ZM747.096 298.17H731.824V323.114H747.096V298.17Z" fill="#142938"/>
<path d="M1025.12 271.504C1025.17 271.495 1025.22 271.495 1025.27 271.504L1073.44 280.331C1073.94 280.423 1073.87 281.156 1073.36 281.156H977.031C976.524 281.156 976.458 280.423 976.956 280.331L1025.12 271.504Z" fill="#142938"/>
<path d="M835.579 314.339C835.665 314.32 835.753 314.311 835.841 314.311L925.242 314.311C926.462 314.311 926.957 315.881 925.957 316.58L904.55 331.547C904.341 331.693 904.091 331.772 903.836 331.772H766.281C764.785 331.772 764.556 329.62 766.018 329.305L835.579 314.339Z" fill="#142938"/>
<path fill-rule="evenodd" clip-rule="evenodd" d="M907.322 334.266H764.879V384.57H826.398V354.222H856.539V384.57H907.322V334.266ZM776.441 352.974H788.153V372.098H776.441V352.974ZM876.923 352.974H865.211V372.098H876.923V352.974ZM798.324 352.974H810.036V372.098H798.324V352.974ZM898.802 352.974H887.09V372.098H898.802V352.974Z" fill="#142938"/>
<path fill-rule="evenodd" clip-rule="evenodd" d="M976.68 283.131H1022.51H1074.12L1137.7 333.85V384.57H907.316V333.85L976.68 283.131ZM941.172 346.323H956.958V372.098H941.172V346.323ZM1007.99 346.323H992.199V372.098H1007.99V346.323ZM1043.22 346.323H1059.01V372.098H1043.22V346.323ZM1110.03 346.323H1094.25V372.098H1110.03V346.323Z" fill="#142938"/>
<rect x="692.324" y="109.208" width="53.6878" height="43.5727" fill="#DBDBDB"/>
<path d="M720.548 81.9478L746.871 110.152H694.225L720.548 81.9478Z" fill="#003030"/>
<rect x="620.742" y="109.208" width="71.5838" height="54.4659" fill="#264D69"/>
<path d="M654.599 79.5883L675.276 88.1745L719.873 54.2388L732.847 62.8249L699.602 102.485L689.466 111.071H620.949L627.841 100.032L654.599 79.5883Z" fill="#264D69"/>
<rect x="748.348" y="109.208" width="71.5838" height="54.4659" fill="#264D69"/>
<circle cx="659.646" cy="67.1919" r="22.5645" fill="#264D69"/>
<circle cx="781.029" cy="67.1919" r="22.5645" fill="#264D69"/>
<path d="M785.799 80.2983L765.417 88.6907L721.456 55.5205L708.668 63.913L741.438 102.678L751.429 111.071H818.969L812.175 100.28L785.799 80.2983Z" fill="#264D69"/>
<rect x="714.113" y="134.107" width="12.4494" height="18.674" fill="#003030"/>
<path d="M824.597 152.781L819.71 152.781V127.929C819.71 110.127 807.613 94.82 790.291 90.7171C789.272 90.4729 788.519 89.6116 788.424 88.5672C788.329 87.5228 788.906 86.5395 789.863 86.1122C797.357 82.7824 802.197 75.3427 802.197 67.1571C802.197 55.7094 792.884 46.398 781.425 46.398C769.967 46.398 760.654 55.7094 760.654 67.1571C760.654 75.3427 765.494 82.7824 772.988 86.1122C774.183 86.648 774.746 88.0179 774.264 89.2386C773.782 90.4526 772.438 91.0833 771.196 90.6492C750.975 83.725 740.467 74.9087 732.722 67.0486C732.043 70.2699 730.04 73.6066 726.755 77.0246C725.873 77.9334 724.861 78.9846 723.741 80.1307C734.188 90.8188 749.216 106.051 749.216 106.051C749.671 106.505 749.922 107.122 749.922 107.766V152.781L745.042 152.781V108.77C741.967 105.651 729.436 92.9483 720.334 83.6301C711.231 92.9483 698.7 105.651 695.625 108.77V152.781L690.738 152.781V107.766C690.738 107.122 690.989 106.505 691.444 106.051C691.444 106.051 714.34 82.857 723.246 73.6269C726.551 70.1954 728.194 67.0961 728.106 64.4037C728.052 62.5794 727.162 60.8704 725.472 59.3173C723.748 57.7372 720.164 54.4412 712.575 62.4709L711.346 63.773C703.194 72.4401 693.949 82.2602 669.458 90.6425C668.209 91.0697 666.865 90.439 666.39 89.2318C665.914 88.0111 666.478 86.6412 667.666 86.1054C675.166 82.7756 680.013 75.3359 680.013 67.1503C680.02 55.7094 670.7 46.398 659.242 46.398C647.784 46.398 638.464 55.7094 638.464 67.1503C638.464 75.3359 643.31 82.7756 650.811 86.1054C651.768 86.5327 652.345 87.5161 652.25 88.5604C652.155 89.6048 651.402 90.4661 650.384 90.7103C633.061 94.82 620.958 110.12 620.958 127.929V152.781L616.07 152.781V127.929C616.07 109.767 627.23 93.9181 643.82 87.6313C637.466 82.8502 633.583 75.302 633.583 67.1503C633.583 53.0171 645.096 41.5151 659.242 41.5151C673.388 41.5151 684.9 53.0171 684.9 67.1503C684.9 72.0671 683.489 76.7669 680.97 80.7682C694.818 74.2102 701.382 67.2249 707.783 60.4228L709.018 59.1139C716.254 51.464 722.913 50.3247 728.771 55.7162C729.443 56.3266 730.034 56.9709 730.55 57.6422L732.043 59.2292C738.553 66.167 745.748 73.8372 759.616 80.619C757.152 76.6584 755.767 72.0129 755.767 67.1503C755.767 53.0171 767.279 41.5151 781.425 41.5151C795.572 41.5151 807.084 53.0171 807.084 67.1503C807.084 75.2953 803.201 82.8434 796.848 87.6246C813.431 93.9113 824.597 109.767 824.597 127.922V152.781Z" fill="white"/>
<mask id="path-32-inside-1_416_105" fill="white">
<path fill-rule="evenodd" clip-rule="evenodd" d="M616.07 152.781C616.07 205.637 662.751 248.485 720.334 248.485C777.917 248.485 824.597 205.637 824.597 152.781H616.07Z"/>
</mask>
<path fill-rule="evenodd" clip-rule="evenodd" d="M616.07 152.781C616.07 205.637 662.751 248.485 720.334 248.485C777.917 248.485 824.597 205.637 824.597 152.781H616.07Z" fill="#D8A800"/>
<path d="M616.07 152.781V148.113H611.402L611.402 152.781L616.07 152.781ZM824.597 152.781L829.266 152.781L829.266 148.113H824.597V152.781ZM720.334 243.817C664.945 243.817 620.739 202.691 620.739 152.781L611.402 152.781C611.402 208.584 660.557 253.154 720.334 253.154V243.817ZM819.928 152.781C819.928 202.691 775.723 243.817 720.334 243.817V253.154C780.11 253.154 829.265 208.584 829.266 152.781L819.928 152.781ZM824.597 148.113H616.07V157.45H824.597V148.113Z" fill="white" mask="url(#path-32-inside-1_416_105)"/>
<path d="M646.596 192.191C646.596 189.384 646.588 186.593 646.571 183.819C646.563 181.045 646.551 178.25 646.534 175.435C646.534 174.865 646.654 174.461 646.893 174.221C647.141 173.974 647.521 173.85 648.033 173.85C648.223 173.85 648.404 173.879 648.578 173.936C648.751 173.994 648.904 174.081 649.036 174.197C649.168 174.304 649.271 174.436 649.345 174.593C649.428 174.75 649.469 174.927 649.469 175.125C649.469 176.306 649.465 177.429 649.457 178.494C649.457 179.559 649.453 180.632 649.444 181.714L656.045 175.472C656.136 175.34 656.277 175.183 656.466 175.001C656.665 174.812 656.875 174.634 657.098 174.469C657.329 174.296 657.556 174.151 657.779 174.036C658.01 173.912 658.213 173.85 658.386 173.85C658.576 173.85 658.758 173.875 658.931 173.924C659.104 173.974 659.253 174.052 659.377 174.159C659.509 174.267 659.612 174.407 659.686 174.58C659.769 174.754 659.81 174.96 659.81 175.2C659.81 175.456 659.769 175.679 659.686 175.868C659.612 176.05 659.509 176.215 659.377 176.364C659.245 176.504 659.096 176.632 658.931 176.748C658.774 176.855 658.609 176.958 658.436 177.057C657.255 178.106 656.062 179.134 654.856 180.141C653.651 181.14 652.429 182.164 651.191 183.212C651.736 183.361 652.268 183.613 652.788 183.968C653.317 184.315 653.82 184.719 654.299 185.181C654.778 185.636 655.22 186.123 655.624 186.643C656.037 187.163 656.4 187.667 656.714 188.154C656.954 188.525 657.189 188.884 657.42 189.231C657.659 189.578 657.891 189.883 658.114 190.148C658.345 190.404 658.568 190.61 658.782 190.767C659.005 190.924 659.224 191.002 659.439 191.002C659.612 191.002 659.806 191.01 660.021 191.027C660.235 191.035 660.438 191.081 660.628 191.163C660.817 191.237 660.974 191.357 661.098 191.522C661.23 191.687 661.296 191.923 661.296 192.228C661.296 192.567 661.226 192.835 661.086 193.033C660.945 193.231 660.768 193.38 660.553 193.479C660.339 193.578 660.095 193.64 659.823 193.665C659.558 193.69 659.298 193.702 659.042 193.702C658.572 193.702 658.122 193.582 657.692 193.343C657.271 193.095 656.867 192.773 656.479 192.377C656.099 191.972 655.732 191.518 655.377 191.015C655.022 190.511 654.671 189.999 654.324 189.479C654.01 189.008 653.668 188.534 653.296 188.055C652.933 187.568 652.541 187.122 652.119 186.717C651.707 186.304 651.273 185.945 650.819 185.64C650.365 185.334 649.903 185.12 649.432 184.996V186.383C649.432 187.307 649.432 188.195 649.432 189.045C649.44 189.896 649.449 190.655 649.457 191.324C649.482 191.555 649.498 191.762 649.506 191.943C649.515 192.117 649.523 192.286 649.531 192.451C649.531 192.88 649.391 193.194 649.11 193.392C648.838 193.599 648.458 193.702 647.971 193.702C647.863 193.702 647.731 193.681 647.574 193.64C647.418 193.607 647.265 193.533 647.116 193.417C646.976 193.31 646.852 193.157 646.745 192.959C646.646 192.761 646.596 192.505 646.596 192.191ZM664.999 192.352C664.999 191.931 665.028 191.518 665.086 191.114C665.152 190.701 665.185 190.263 665.185 189.801C665.185 187.695 665.164 185.578 665.123 183.448C665.09 181.318 665.074 179.13 665.074 176.884C665.074 176.653 665.049 176.422 664.999 176.19C664.95 175.951 664.925 175.695 664.925 175.423C664.925 175.208 664.954 175.006 665.012 174.816C665.069 174.626 665.169 174.461 665.309 174.32C665.449 174.172 665.643 174.056 665.891 173.974C666.139 173.891 666.448 173.85 666.82 173.85C667.191 173.85 667.484 173.99 667.699 174.271C667.914 174.552 668.021 174.927 668.021 175.398C668.021 175.538 668.009 175.679 667.984 175.819C667.959 175.951 667.934 176.091 667.91 176.24C667.893 176.95 667.881 177.714 667.872 178.531C667.864 179.348 667.86 180.286 667.86 181.342C667.86 182.284 667.864 183.245 667.872 184.228C667.881 185.21 667.893 186.156 667.91 187.064C667.926 187.972 667.947 188.822 667.972 189.615C668.005 190.399 668.042 191.076 668.083 191.646V191.634C668.099 191.758 668.112 191.877 668.12 191.993C668.137 192.1 668.145 192.212 668.145 192.327C668.145 192.525 668.12 192.711 668.071 192.885C668.029 193.05 667.955 193.194 667.848 193.318C667.74 193.442 667.592 193.537 667.402 193.603C667.212 193.669 666.977 193.702 666.696 193.702C666.366 193.702 666.089 193.673 665.866 193.615C665.652 193.557 665.478 193.471 665.346 193.355C665.222 193.24 665.131 193.099 665.074 192.934C665.024 192.761 664.999 192.567 664.999 192.352ZM673.904 191.968C673.904 191.729 673.937 191.493 674.003 191.262C674.077 191.023 674.114 190.771 674.114 190.507L673.928 175.72C673.937 175.092 674.044 174.63 674.25 174.333C674.465 174.027 674.828 173.875 675.34 173.875C675.621 173.875 675.856 173.899 676.046 173.949C676.236 173.998 676.389 174.085 676.504 174.209C676.62 174.333 676.698 174.494 676.74 174.692C676.789 174.89 676.814 175.138 676.814 175.435V177.293C676.814 177.804 676.81 178.415 676.802 179.125C676.802 179.827 676.802 180.579 676.802 181.379C676.802 182.18 676.802 183.01 676.802 183.869C676.802 184.719 676.802 185.553 676.802 186.37C676.802 187.179 676.802 187.947 676.802 188.674C676.802 189.4 676.806 190.036 676.814 190.581C677.78 190.581 678.593 190.581 679.254 190.581C679.922 190.573 680.471 190.56 680.901 190.544C681.132 190.527 681.363 190.503 681.594 190.47C681.826 190.428 682.073 190.408 682.337 190.408C682.882 190.408 683.295 190.532 683.576 190.779C683.865 191.027 684.009 191.39 684.009 191.869C684.009 192.191 683.947 192.451 683.824 192.649C683.7 192.839 683.535 192.988 683.328 193.095C683.13 193.194 682.903 193.26 682.647 193.293C682.399 193.326 682.148 193.343 681.892 193.343H675.315C675.109 193.343 674.919 193.326 674.746 193.293C674.572 193.252 674.424 193.182 674.3 193.083C674.176 192.984 674.077 192.847 674.003 192.674C673.937 192.492 673.904 192.257 673.904 191.968ZM687.526 191.968C687.526 191.729 687.559 191.493 687.626 191.262C687.7 191.023 687.737 190.771 687.737 190.507L687.551 175.72C687.559 175.092 687.667 174.63 687.873 174.333C688.088 174.027 688.451 173.875 688.963 173.875C689.244 173.875 689.479 173.899 689.669 173.949C689.859 173.998 690.012 174.085 690.127 174.209C690.243 174.333 690.321 174.494 690.362 174.692C690.412 174.89 690.437 175.138 690.437 175.435V177.293C690.437 177.804 690.433 178.415 690.424 179.125C690.424 179.827 690.424 180.579 690.424 181.379C690.424 182.18 690.424 183.01 690.424 183.869C690.424 184.719 690.424 185.553 690.424 186.37C690.424 187.179 690.424 187.947 690.424 188.674C690.424 189.4 690.429 190.036 690.437 190.581C691.403 190.581 692.216 190.581 692.877 190.581C693.545 190.573 694.094 190.56 694.524 190.544C694.755 190.527 694.986 190.503 695.217 190.47C695.448 190.428 695.696 190.408 695.96 190.408C696.505 190.408 696.918 190.532 697.199 190.779C697.488 191.027 697.632 191.39 697.632 191.869C697.632 192.191 697.57 192.451 697.446 192.649C697.323 192.839 697.157 192.988 696.951 193.095C696.753 193.194 696.526 193.26 696.27 193.293C696.022 193.326 695.77 193.343 695.514 193.343H688.938C688.732 193.343 688.542 193.326 688.369 193.293C688.195 193.252 688.047 193.182 687.923 193.083C687.799 192.984 687.7 192.847 687.626 192.674C687.559 192.492 687.526 192.257 687.526 191.968ZM701.149 191.943C701.149 191.803 701.166 191.654 701.199 191.497C701.24 191.341 701.281 191.196 701.323 191.064L701.434 190.668L701.149 175.856C701.149 175.451 701.195 175.138 701.286 174.915C701.385 174.692 701.508 174.527 701.657 174.419C701.806 174.312 701.975 174.25 702.165 174.234C702.363 174.217 702.561 174.209 702.759 174.209H709.286C709.434 174.192 709.6 174.172 709.781 174.147C709.971 174.114 710.103 174.097 710.178 174.097C710.491 174.097 710.743 174.126 710.933 174.184C711.131 174.242 711.284 174.329 711.391 174.444C711.507 174.552 711.581 174.688 711.614 174.853C711.655 175.018 711.676 175.212 711.676 175.435C711.676 175.749 711.635 176.001 711.552 176.19C711.478 176.38 711.371 176.529 711.23 176.636C711.098 176.735 710.941 176.801 710.76 176.834C710.578 176.867 710.384 176.884 710.178 176.884C710.087 176.884 709.967 176.884 709.818 176.884C709.67 176.876 709.513 176.863 709.348 176.847C708.547 176.847 707.899 176.847 707.403 176.847C706.916 176.847 706.524 176.851 706.227 176.859C705.938 176.859 705.715 176.859 705.558 176.859C705.41 176.859 705.277 176.859 705.162 176.859H704.01V180.785C704.06 180.785 704.117 180.789 704.183 180.797C704.258 180.797 704.369 180.797 704.518 180.797C704.666 180.797 704.869 180.797 705.125 180.797C705.389 180.797 705.74 180.797 706.177 180.797C706.615 180.797 707.156 180.797 707.8 180.797C708.444 180.797 709.224 180.797 710.14 180.797C710.231 180.797 710.334 180.793 710.45 180.785C710.566 180.777 710.681 180.764 710.797 180.748C710.945 180.731 711.119 180.715 711.317 180.698C711.515 180.682 711.73 180.674 711.961 180.674C712.184 180.674 712.382 180.719 712.555 180.81C712.729 180.901 712.873 181.016 712.989 181.157C713.113 181.289 713.203 181.433 713.261 181.59C713.327 181.747 713.36 181.895 713.36 182.036C713.36 182.482 713.212 182.808 712.914 183.014C712.625 183.221 712.25 183.324 711.787 183.324L704.01 183.336V190.754C704.827 190.754 705.649 190.767 706.475 190.792C707.3 190.816 708.163 190.829 709.063 190.829C709.311 190.829 709.538 190.816 709.744 190.792C709.95 190.767 710.149 190.738 710.339 190.705C710.512 190.68 710.685 190.659 710.859 190.643C711.04 190.618 711.238 190.606 711.453 190.606C711.701 190.606 711.928 190.626 712.134 190.668C712.349 190.701 712.535 190.767 712.692 190.866C712.848 190.957 712.972 191.085 713.063 191.25C713.154 191.407 713.199 191.609 713.199 191.857C713.199 192.22 713.137 192.501 713.014 192.699C712.89 192.897 712.72 193.046 712.506 193.145C712.299 193.235 712.06 193.293 711.787 193.318C711.523 193.335 711.247 193.343 710.958 193.343H702.623C702.408 193.343 702.21 193.318 702.029 193.268C701.855 193.219 701.702 193.14 701.57 193.033C701.438 192.918 701.335 192.773 701.261 192.6C701.186 192.418 701.149 192.199 701.149 191.943ZM717.583 192.55C717.583 192.203 717.608 191.91 717.658 191.671C717.707 191.431 717.736 191.32 717.744 191.337C717.761 190.437 717.773 189.524 717.782 188.6C717.798 187.675 717.806 186.696 717.806 185.664C717.806 185.012 717.806 184.306 717.806 183.547C717.806 182.779 717.798 182.007 717.782 181.231C717.773 180.446 717.757 179.679 717.732 178.927C717.707 178.168 717.674 177.466 717.633 176.822C717.6 176.632 717.575 176.463 717.559 176.314C717.542 176.157 717.534 175.992 717.534 175.819C717.534 175.414 717.621 175.096 717.794 174.865C717.967 174.626 718.248 174.461 718.636 174.37C718.801 174.23 718.983 174.135 719.181 174.085C719.387 174.027 719.586 173.998 719.775 173.998C719.974 173.998 720.151 174.056 720.308 174.172C720.473 174.287 720.618 174.424 720.741 174.58C720.865 174.737 720.968 174.902 721.051 175.076C721.134 175.241 721.191 175.377 721.224 175.484C721.48 175.864 721.786 176.298 722.141 176.785C722.504 177.272 722.896 177.796 723.317 178.358C723.747 178.911 724.201 179.493 724.68 180.104C725.158 180.707 725.641 181.318 726.129 181.937C726.624 182.556 727.115 183.175 727.602 183.794C728.089 184.405 728.552 184.996 728.989 185.565C729.427 186.135 729.836 186.676 730.215 187.188C730.595 187.691 730.921 188.145 731.194 188.55C731.194 186.783 731.186 185.264 731.169 183.993C731.161 182.713 731.148 181.627 731.132 180.735C731.115 179.836 731.095 179.097 731.07 178.519C731.045 177.941 731.025 177.462 731.008 177.082C730.992 176.702 730.975 176.393 730.959 176.153C730.95 175.906 730.946 175.67 730.946 175.447C730.946 175.117 730.979 174.849 731.045 174.642C731.12 174.428 731.219 174.263 731.342 174.147C731.475 174.031 731.636 173.953 731.825 173.912C732.015 173.87 732.234 173.85 732.482 173.85C732.804 173.85 733.056 173.916 733.237 174.048C733.419 174.18 733.555 174.349 733.646 174.556C733.745 174.754 733.803 174.981 733.819 175.237C733.844 175.484 733.856 175.728 733.856 175.967V190.172C733.856 190.47 733.873 190.771 733.906 191.076C733.939 191.374 733.956 191.692 733.956 192.03C733.956 192.352 733.931 192.62 733.881 192.835C733.832 193.041 733.749 193.211 733.634 193.343C733.526 193.475 733.382 193.566 733.2 193.615C733.027 193.673 732.816 193.702 732.568 193.702C732.106 193.702 731.735 193.586 731.454 193.355C731.181 193.124 730.987 192.843 730.872 192.513C730.087 191.44 729.291 190.383 728.482 189.343C727.681 188.294 726.872 187.25 726.054 186.209C725.237 185.161 724.415 184.108 723.59 183.051C722.764 181.986 721.943 180.905 721.125 179.807L720.382 178.643C720.39 179.906 720.399 181.033 720.407 182.023C720.415 183.006 720.424 183.885 720.432 184.661C720.44 185.429 720.448 186.11 720.457 186.705C720.465 187.291 720.469 187.819 720.469 188.29C720.477 188.752 720.481 189.177 720.481 189.566C720.49 189.945 720.494 190.317 720.494 190.68C720.502 190.895 720.514 191.126 720.531 191.374C720.556 191.613 720.568 191.848 720.568 192.08C720.568 192.294 720.547 192.501 720.506 192.699C720.473 192.897 720.403 193.07 720.296 193.219C720.188 193.368 720.035 193.483 719.837 193.566C719.647 193.657 719.396 193.702 719.082 193.702C718.661 193.702 718.306 193.599 718.017 193.392C717.728 193.186 717.583 192.905 717.583 192.55ZM736.853 192.389C736.853 192.125 736.891 191.861 736.965 191.597C737.039 191.324 737.175 191.052 737.374 190.779C737.514 190.54 737.704 190.176 737.943 189.689C738.191 189.202 738.468 188.628 738.773 187.968C739.079 187.307 739.405 186.589 739.751 185.813C740.106 185.029 740.466 184.232 740.829 183.423C741.192 182.606 741.551 181.792 741.906 180.983C742.27 180.166 742.612 179.402 742.934 178.692C743.256 177.974 743.549 177.326 743.813 176.748C744.078 176.17 744.301 175.703 744.482 175.348C744.507 175.167 744.557 174.989 744.631 174.816C744.705 174.634 744.804 174.473 744.928 174.333C745.052 174.184 745.201 174.069 745.374 173.986C745.547 173.895 745.75 173.85 745.981 173.85C746.278 173.85 746.517 173.891 746.699 173.974C746.889 174.056 747.042 174.172 747.157 174.32C747.281 174.461 747.38 174.626 747.455 174.816C747.529 175.006 747.603 175.208 747.677 175.423C747.743 175.612 747.805 175.794 747.863 175.967C747.921 176.133 747.975 176.261 748.024 176.351C748.577 177.458 749.114 178.572 749.634 179.695C750.163 180.818 750.683 181.962 751.195 183.126C751.715 184.282 752.239 185.454 752.767 186.643C753.296 187.832 753.845 189.041 754.415 190.271L754.65 190.618C754.716 190.709 754.794 190.82 754.885 190.953C754.976 191.076 755.059 191.213 755.133 191.361C755.215 191.51 755.281 191.667 755.331 191.832C755.389 191.997 755.418 192.162 755.418 192.327C755.418 192.823 755.277 193.174 754.997 193.38C754.716 193.595 754.373 193.702 753.969 193.702C753.746 193.702 753.539 193.665 753.349 193.59C753.168 193.524 753.007 193.434 752.866 193.318C752.726 193.194 752.615 193.054 752.532 192.897C752.45 192.732 752.396 192.558 752.371 192.377C752.14 191.873 751.925 191.403 751.727 190.965C751.529 190.519 751.335 190.09 751.145 189.677C750.963 189.264 750.786 188.864 750.613 188.476C750.439 188.079 750.266 187.683 750.092 187.287C749.96 187.287 749.775 187.287 749.535 187.287C749.296 187.279 749.027 187.266 748.73 187.25C748.259 187.25 747.781 187.246 747.294 187.237C746.815 187.229 746.323 187.225 745.82 187.225C745.316 187.217 744.796 187.217 744.259 187.225C743.723 187.225 743.161 187.237 742.575 187.262C742.484 187.27 742.398 187.279 742.315 187.287C742.232 187.287 742.146 187.287 742.055 187.287C741.824 187.848 741.605 188.385 741.399 188.897C741.192 189.4 741.006 189.867 740.841 190.296C740.676 190.726 740.528 191.109 740.395 191.448C740.272 191.778 740.177 192.047 740.111 192.253V192.241C740.061 192.422 740.003 192.6 739.937 192.773C739.879 192.946 739.793 193.103 739.677 193.244C739.562 193.376 739.401 193.483 739.194 193.566C738.996 193.657 738.732 193.702 738.402 193.702C737.956 193.702 737.584 193.59 737.287 193.368C736.998 193.145 736.853 192.819 736.853 192.389ZM743.182 184.587C743.355 184.587 743.578 184.587 743.851 184.587C744.131 184.587 744.491 184.591 744.928 184.599C745.374 184.599 745.919 184.604 746.563 184.612C747.207 184.612 747.987 184.616 748.903 184.624C748.524 183.799 748.094 182.87 747.616 181.838C747.137 180.797 746.571 179.588 745.919 178.209C745.729 178.63 745.527 179.092 745.312 179.596C745.097 180.1 744.87 180.624 744.631 181.169C744.4 181.714 744.16 182.275 743.913 182.853C743.673 183.431 743.43 184.009 743.182 184.587ZM758.378 191.968C758.378 191.786 758.386 191.609 758.402 191.436C758.419 191.262 758.435 191.101 758.452 190.953C758.452 189.805 758.452 188.748 758.452 187.782C758.452 186.816 758.452 185.916 758.452 185.082C758.452 184.24 758.452 183.452 758.452 182.717C758.452 181.982 758.452 181.272 758.452 180.587C758.452 179.893 758.452 179.216 758.452 178.556C758.46 177.887 758.464 177.206 758.464 176.512C758.423 176.397 758.382 176.236 758.34 176.029C758.307 175.823 758.291 175.629 758.291 175.447C758.291 175.274 758.316 175.101 758.365 174.927C758.423 174.754 758.506 174.601 758.613 174.469C758.728 174.329 758.869 174.217 759.034 174.135C759.199 174.052 759.389 174.011 759.604 174.011C759.95 174.011 760.301 174.031 760.656 174.073C761.011 174.114 761.412 174.135 761.858 174.135C762.229 174.135 762.601 174.118 762.972 174.085C763.344 174.044 763.74 174.019 764.161 174.011C765.408 174.011 766.535 174.135 767.542 174.382C768.558 174.63 769.42 175.014 770.13 175.534C770.849 176.054 771.402 176.719 771.79 177.528C772.178 178.329 772.372 179.286 772.372 180.401C772.372 181.458 772.223 182.399 771.926 183.225C771.637 184.042 771.261 184.756 770.799 185.367C770.345 185.978 769.833 186.49 769.263 186.903C768.702 187.307 768.153 187.617 767.616 187.832C767.691 188.278 767.806 188.699 767.963 189.095C768.128 189.483 768.335 189.826 768.582 190.123C768.838 190.42 769.135 190.655 769.474 190.829C769.812 191.002 770.192 191.089 770.613 191.089C770.927 191.089 771.212 191.039 771.468 190.94C771.732 190.841 771.959 190.647 772.149 190.358C772.265 190.193 772.405 190.049 772.57 189.925C772.735 189.793 772.946 189.727 773.202 189.727C773.647 189.727 773.994 189.85 774.242 190.098C774.49 190.346 774.613 190.659 774.613 191.039C774.613 191.394 774.51 191.733 774.304 192.055C774.106 192.377 773.821 192.662 773.449 192.909C773.086 193.149 772.644 193.339 772.124 193.479C771.604 193.628 771.026 193.702 770.39 193.702C769.804 193.702 769.272 193.615 768.793 193.442C768.322 193.277 767.897 193.054 767.517 192.773C767.146 192.484 766.815 192.158 766.526 191.795C766.237 191.423 765.99 191.039 765.783 190.643C765.577 190.238 765.408 189.838 765.276 189.442C765.144 189.045 765.04 188.674 764.966 188.327C764.867 188.327 764.735 188.327 764.57 188.327C764.405 188.327 764.235 188.327 764.062 188.327C763.889 188.327 763.715 188.327 763.542 188.327C763.377 188.319 763.24 188.315 763.133 188.315C762.894 188.306 762.596 188.302 762.241 188.302C761.895 188.294 761.577 188.29 761.288 188.29V190.098C761.304 190.486 761.354 190.866 761.436 191.237C761.519 191.601 761.56 191.976 761.56 192.364C761.56 192.604 761.511 192.806 761.412 192.971C761.321 193.136 761.201 193.273 761.053 193.38C760.904 193.496 760.743 193.578 760.57 193.628C760.396 193.677 760.231 193.702 760.074 193.702C759.827 193.702 759.599 193.657 759.393 193.566C759.187 193.483 759.009 193.368 758.861 193.219C758.712 193.062 758.592 192.88 758.501 192.674C758.419 192.459 758.378 192.224 758.378 191.968ZM761.275 185.627C761.49 185.636 761.742 185.644 762.031 185.652C762.32 185.66 762.596 185.669 762.861 185.677C763.125 185.685 763.36 185.693 763.567 185.702C763.773 185.702 763.905 185.702 763.963 185.702C765.077 185.702 765.99 185.549 766.7 185.243C767.418 184.938 767.98 184.533 768.384 184.03C768.789 183.526 769.065 182.948 769.214 182.296C769.371 181.644 769.449 180.975 769.449 180.29C769.449 179.687 769.354 179.179 769.164 178.766C768.974 178.345 768.723 177.999 768.409 177.726C768.095 177.454 767.74 177.239 767.344 177.082C766.948 176.925 766.543 176.81 766.13 176.735C765.726 176.661 765.325 176.616 764.929 176.599C764.541 176.583 764.198 176.574 763.901 176.574C763.48 176.574 763.051 176.583 762.613 176.599C762.184 176.607 761.717 176.616 761.214 176.624C761.197 176.938 761.185 177.222 761.176 177.478C761.176 177.734 761.172 177.986 761.164 178.234C761.164 178.473 761.164 178.721 761.164 178.977C761.164 179.225 761.164 179.505 761.164 179.819C761.164 180.38 761.164 180.905 761.164 181.392C761.172 181.871 761.181 182.341 761.189 182.804C761.197 183.258 761.205 183.716 761.214 184.178C761.23 184.641 761.251 185.124 761.275 185.627ZM767.084 188.005C767.076 188.005 767.071 188.009 767.071 188.017L767.084 188.005ZM767.059 188.017H767.071H767.059ZM778.143 191.894C778.143 191.514 778.16 191.142 778.193 190.779C778.226 190.416 778.242 189.991 778.242 189.504C778.242 187.307 778.234 185.107 778.217 182.903C778.209 180.698 778.172 178.469 778.106 176.215C778.015 176.042 777.932 175.852 777.858 175.645C777.792 175.439 777.759 175.262 777.759 175.113C777.759 174.758 777.854 174.461 778.044 174.221C778.242 173.974 778.576 173.85 779.047 173.85C779.287 173.85 779.522 173.883 779.753 173.949C779.984 174.007 780.232 174.036 780.496 174.036C781.074 174.036 781.648 174.007 782.217 173.949C782.787 173.883 783.369 173.85 783.964 173.85C785.177 173.85 786.263 173.969 787.221 174.209C788.187 174.44 789.033 174.766 789.76 175.187C790.486 175.6 791.105 176.095 791.617 176.673C792.129 177.243 792.542 177.871 792.856 178.556C793.178 179.233 793.413 179.955 793.562 180.723C793.71 181.483 793.784 182.255 793.784 183.039C793.784 183.741 793.71 184.492 793.562 185.293C793.421 186.086 793.186 186.874 792.856 187.658C792.525 188.434 792.096 189.182 791.568 189.9C791.039 190.61 790.387 191.237 789.611 191.782C788.835 192.327 787.927 192.765 786.886 193.095C785.854 193.417 784.67 193.578 783.332 193.578C783.018 193.578 782.705 193.562 782.391 193.529C782.085 193.504 781.776 193.471 781.462 193.429C781.148 193.396 780.83 193.368 780.508 193.343C780.195 193.31 779.873 193.293 779.542 193.293C779.039 193.293 778.68 193.178 778.465 192.946C778.25 192.715 778.143 192.364 778.143 191.894ZM780.905 190.618C781.078 190.668 781.285 190.709 781.524 190.742C781.772 190.767 782.019 190.787 782.267 190.804C782.515 190.82 782.746 190.833 782.961 190.841C783.183 190.841 783.357 190.841 783.481 190.841C784.504 190.841 785.4 190.713 786.168 190.457C786.936 190.201 787.592 189.867 788.137 189.454C788.69 189.041 789.149 188.575 789.512 188.055C789.875 187.534 790.16 187.01 790.366 186.482C790.581 185.953 790.73 185.446 790.812 184.959C790.895 184.471 790.936 184.054 790.936 183.708C790.936 182.337 790.771 181.198 790.441 180.29C790.119 179.373 789.64 178.643 789.004 178.098C788.377 177.553 787.601 177.169 786.676 176.946C785.759 176.723 784.703 176.611 783.505 176.611C783.349 176.611 783.155 176.616 782.923 176.624C782.7 176.632 782.465 176.64 782.217 176.649C781.97 176.657 781.722 176.669 781.474 176.686C781.235 176.702 781.02 176.715 780.83 176.723L780.905 190.618Z" fill="#003030"/>
<path d="M660.219 208.595C660.219 208.089 660.273 207.632 660.382 207.225C660.495 206.814 660.648 206.448 660.841 206.129C661.034 205.809 661.261 205.533 661.521 205.301C661.78 205.069 662.062 204.878 662.364 204.727C662.666 204.576 662.98 204.465 663.307 204.395C663.637 204.321 663.966 204.284 664.292 204.284C664.591 204.284 664.884 204.312 665.172 204.369C665.46 204.421 665.745 204.497 666.026 204.595C666.11 204.627 666.195 204.658 666.279 204.69C666.367 204.718 666.444 204.755 666.511 204.801C666.581 204.846 666.637 204.904 666.679 204.975C666.722 205.045 666.743 205.134 666.743 205.243C666.743 205.37 666.722 205.475 666.679 205.559C666.641 205.64 666.59 205.705 666.527 205.754C666.463 205.804 666.393 205.839 666.316 205.86C666.242 205.881 666.17 205.891 666.1 205.891C666.051 205.891 665.998 205.884 665.942 205.87C665.886 205.853 665.828 205.832 665.768 205.807C665.708 205.783 665.65 205.754 665.594 205.723C665.538 205.688 665.487 205.654 665.441 205.623C665.315 205.57 665.195 205.531 665.083 205.507C664.974 205.479 664.868 205.459 664.767 205.449C664.665 205.435 664.565 205.428 664.466 205.428C664.368 205.424 664.27 205.422 664.171 205.422C663.95 205.422 663.728 205.449 663.507 205.501C663.286 205.551 663.072 205.63 662.864 205.739C662.661 205.844 662.469 205.978 662.29 206.139C662.111 206.301 661.954 206.494 661.821 206.719C661.691 206.94 661.587 207.193 661.51 207.478C661.436 207.762 661.399 208.08 661.399 208.431C661.399 209.015 661.482 209.508 661.647 209.912C661.816 210.313 662.033 210.638 662.3 210.887C662.571 211.136 662.875 211.317 663.212 211.43C663.549 211.539 663.89 211.593 664.234 211.593C664.392 211.593 664.547 211.584 664.698 211.567C664.853 211.546 664.995 211.521 665.125 211.493C665.258 211.461 665.376 211.428 665.478 211.393C665.58 211.354 665.657 211.316 665.71 211.277C665.815 211.186 665.908 211.117 665.989 211.071C666.07 211.022 666.163 210.998 666.268 210.998C666.349 210.998 666.425 211.007 666.495 211.024C666.569 211.042 666.632 211.073 666.685 211.119C666.737 211.161 666.78 211.217 666.811 211.288C666.843 211.358 666.859 211.446 666.859 211.551C666.859 211.699 666.808 211.834 666.706 211.957C666.607 212.076 666.448 212.189 666.226 212.294V212.289C666.153 212.331 666.044 212.378 665.9 212.431C665.759 212.484 665.599 212.533 665.42 212.579C665.244 212.621 665.058 212.656 664.861 212.684C664.665 212.716 664.472 212.731 664.282 212.731C663.85 212.731 663.449 212.68 663.08 212.579C662.715 212.473 662.381 212.329 662.079 212.147C661.78 211.96 661.515 211.739 661.283 211.483C661.052 211.226 660.857 210.945 660.698 210.639C660.54 210.334 660.421 210.009 660.34 209.665C660.259 209.317 660.219 208.96 660.219 208.595ZM668.102 209.401C668.102 208.944 668.187 208.516 668.355 208.115C668.527 207.711 668.761 207.36 669.056 207.061C669.355 206.759 669.702 206.522 670.099 206.35C670.496 206.174 670.922 206.086 671.375 206.086C671.87 206.086 672.318 206.174 672.718 206.35C673.122 206.522 673.467 206.759 673.751 207.061C674.039 207.36 674.261 207.711 674.415 208.115C674.57 208.516 674.647 208.944 674.647 209.401C674.647 209.735 674.607 210.049 674.526 210.344C674.449 210.639 674.338 210.91 674.194 211.156C674.05 211.402 673.876 211.623 673.672 211.82C673.472 212.013 673.251 212.178 673.008 212.315C672.766 212.449 672.506 212.551 672.228 212.621C671.954 212.695 671.67 212.731 671.375 212.731C670.932 212.731 670.512 212.652 670.115 212.494C669.718 212.333 669.371 212.108 669.072 211.82C668.773 211.528 668.536 211.179 668.361 210.771C668.188 210.36 668.102 209.903 668.102 209.401ZM669.32 209.401C669.32 209.735 669.367 210.037 669.462 210.307C669.557 210.578 669.692 210.81 669.868 211.003C670.047 211.193 670.263 211.34 670.516 211.446C670.769 211.548 671.053 211.598 671.369 211.598C671.651 211.598 671.916 211.551 672.165 211.456C672.415 211.361 672.632 211.223 672.819 211.04C673.008 210.854 673.158 210.624 673.267 210.35C673.379 210.076 673.435 209.759 673.435 209.401C673.435 209.106 673.388 208.827 673.293 208.563C673.202 208.296 673.068 208.064 672.892 207.868C672.717 207.671 672.501 207.514 672.244 207.399C671.988 207.283 671.696 207.225 671.369 207.225C671.043 207.225 670.753 207.283 670.5 207.399C670.247 207.514 670.033 207.671 669.857 207.868C669.681 208.064 669.548 208.296 669.457 208.563C669.365 208.827 669.32 209.106 669.32 209.401ZM676.708 212.194C676.708 212.015 676.72 211.839 676.744 211.667C676.773 211.495 676.787 211.312 676.787 211.119C676.787 210.975 676.785 210.833 676.781 210.692C676.781 210.552 676.78 210.402 676.776 210.244C676.776 210.086 676.774 209.914 676.771 209.728C676.767 209.538 676.762 209.324 676.755 209.085C676.752 208.846 676.746 208.575 676.739 208.273C676.732 207.971 676.725 207.625 676.718 207.235C676.672 207.242 676.62 207.249 676.56 207.256C676.504 207.26 676.432 207.262 676.344 207.262C676.281 207.262 676.216 207.251 676.149 207.23C676.082 207.209 676.023 207.177 675.97 207.135C675.917 207.089 675.873 207.031 675.838 206.961C675.803 206.887 675.785 206.798 675.785 206.692C675.785 206.503 675.835 206.36 675.933 206.266C676.031 206.167 676.151 206.118 676.291 206.118C676.348 206.118 676.402 206.125 676.455 206.139C676.507 206.153 676.564 206.16 676.623 206.16C676.764 206.16 676.903 206.153 677.04 206.139C677.18 206.125 677.328 206.118 677.482 206.118C677.633 206.118 677.737 206.165 677.793 206.26C677.853 206.355 677.883 206.489 677.883 206.661V206.766C678.16 206.534 678.454 206.364 678.763 206.255C679.072 206.143 679.36 206.086 679.627 206.086C680.066 206.086 680.456 206.15 680.797 206.276C681.138 206.403 681.427 206.591 681.666 206.84C681.814 206.721 681.968 206.613 682.13 206.519C682.292 206.424 682.453 206.345 682.615 206.281C682.78 206.218 682.942 206.171 683.1 206.139C683.258 206.104 683.409 206.086 683.553 206.086C683.995 206.086 684.398 206.153 684.76 206.287C685.121 206.417 685.431 206.61 685.687 206.866C685.947 207.123 686.147 207.439 686.288 207.815C686.428 208.187 686.499 208.618 686.499 209.106C686.499 209.261 686.488 209.436 686.467 209.633C686.449 209.826 686.423 210.026 686.388 210.234C686.353 210.437 686.311 210.639 686.261 210.84C686.212 211.036 686.16 211.214 686.103 211.372C686.149 211.358 686.186 211.349 686.214 211.346C686.242 211.342 686.267 211.34 686.288 211.34C686.411 211.34 686.509 211.363 686.583 211.409C686.657 211.454 686.713 211.509 686.752 211.572C686.794 211.635 686.82 211.702 686.831 211.772C686.845 211.839 686.852 211.895 686.852 211.941C686.852 212.05 686.832 212.139 686.794 212.21C686.755 212.276 686.687 212.334 686.588 212.384C686.493 212.429 686.363 212.471 686.198 212.51C686.037 212.549 685.831 212.594 685.582 212.647C685.473 212.675 685.383 212.698 685.313 212.716C685.246 212.733 685.185 212.742 685.128 212.742C685.016 212.742 684.919 212.724 684.839 212.689C684.758 212.658 684.691 212.616 684.638 212.563C684.589 212.507 684.552 212.442 684.528 212.368C684.503 212.291 684.491 212.21 684.491 212.125C684.491 212.034 684.515 211.932 684.565 211.82C684.614 211.704 684.679 211.6 684.76 211.509C684.84 211.375 684.914 211.214 684.981 211.024C685.048 210.831 685.104 210.625 685.15 210.408C685.199 210.19 685.236 209.968 685.26 209.744C685.285 209.519 685.297 209.306 685.297 209.106C685.297 208.825 685.262 208.568 685.192 208.337C685.125 208.105 685.018 207.906 684.87 207.741C684.726 207.576 684.542 207.448 684.317 207.356C684.096 207.265 683.832 207.219 683.526 207.219C683.372 207.219 683.233 207.232 683.11 207.256C682.991 207.277 682.878 207.309 682.773 207.351C682.671 207.393 682.574 207.446 682.483 207.509C682.392 207.572 682.3 207.646 682.209 207.731C682.353 208.124 682.425 208.582 682.425 209.106C682.425 209.264 682.415 209.443 682.394 209.643C682.372 209.844 682.343 210.049 682.304 210.26C682.265 210.471 682.216 210.678 682.156 210.882C682.097 211.086 682.03 211.272 681.956 211.44C682.012 211.43 682.07 211.414 682.13 211.393C682.19 211.368 682.255 211.356 682.325 211.356C682.441 211.356 682.534 211.379 682.604 211.425C682.678 211.47 682.733 211.526 682.768 211.593C682.806 211.656 682.831 211.727 682.841 211.804C682.855 211.878 682.863 211.945 682.863 212.004C682.863 212.117 682.84 212.206 682.794 212.273C682.752 212.336 682.696 212.387 682.625 212.426C682.555 212.461 682.474 212.487 682.383 212.505C682.292 212.519 682.199 212.531 682.104 212.542C682.009 212.552 681.916 212.565 681.824 212.579C681.737 212.596 681.658 212.623 681.587 212.658C681.577 212.665 681.552 212.672 681.513 212.679C681.475 212.689 681.433 212.698 681.387 212.705C681.345 212.716 681.301 212.724 681.255 212.731C681.213 212.738 681.18 212.742 681.155 212.742C681.039 212.742 680.941 212.721 680.86 212.679C680.779 212.637 680.713 212.582 680.66 212.515C680.611 212.449 680.574 212.375 680.549 212.294C680.528 212.213 680.518 212.134 680.518 212.057C680.518 211.966 680.532 211.874 680.56 211.783C680.588 211.688 680.626 211.6 680.676 211.519C680.753 211.379 680.825 211.212 680.892 211.019C680.958 210.822 681.015 210.617 681.06 210.402C681.109 210.184 681.148 209.965 681.176 209.744C681.204 209.519 681.218 209.306 681.218 209.106C681.218 208.825 681.19 208.568 681.134 208.337C681.081 208.105 680.992 207.906 680.865 207.741C680.739 207.576 680.572 207.448 680.365 207.356C680.161 207.265 679.908 207.219 679.606 207.219C679.307 207.219 679.014 207.284 678.726 207.414C678.441 207.541 678.16 207.745 677.883 208.026C677.883 208.184 677.881 208.38 677.877 208.616C677.877 208.848 677.877 209.094 677.877 209.354C677.877 209.614 677.877 209.872 677.877 210.128C677.877 210.385 677.877 210.615 677.877 210.819C677.881 211.022 677.883 211.187 677.883 211.314C677.886 211.437 677.89 211.493 677.893 211.483C677.956 211.465 678.007 211.451 678.046 211.44C678.088 211.426 678.122 211.416 678.146 211.409C678.174 211.402 678.195 211.398 678.209 211.398C678.223 211.395 678.239 211.393 678.257 211.393C678.447 211.393 678.591 211.44 678.689 211.535C678.787 211.627 678.837 211.762 678.837 211.941C678.837 212.074 678.81 212.18 678.757 212.257C678.705 212.334 678.638 212.396 678.557 212.442C678.476 212.487 678.385 212.521 678.283 212.542C678.181 212.559 678.083 212.573 677.988 212.584C677.928 212.591 677.867 212.603 677.804 212.621C677.74 212.638 677.677 212.656 677.614 212.673C677.551 212.691 677.488 212.707 677.424 212.721C677.361 212.735 677.303 212.742 677.25 212.742C677.043 212.742 676.901 212.693 676.824 212.594C676.746 212.5 676.708 212.366 676.708 212.194ZM689.091 212.194C689.091 212.015 689.104 211.839 689.128 211.667C689.156 211.495 689.17 211.312 689.17 211.119C689.17 210.975 689.169 210.833 689.165 210.692C689.165 210.552 689.163 210.402 689.16 210.244C689.16 210.086 689.158 209.914 689.154 209.728C689.151 209.538 689.146 209.324 689.139 209.085C689.135 208.846 689.13 208.575 689.123 208.273C689.116 207.971 689.109 207.625 689.102 207.235C689.056 207.242 689.003 207.249 688.944 207.256C688.887 207.26 688.815 207.262 688.728 207.262C688.664 207.262 688.599 207.251 688.533 207.23C688.466 207.209 688.406 207.177 688.353 207.135C688.301 207.089 688.257 207.031 688.222 206.961C688.187 206.887 688.169 206.798 688.169 206.692C688.169 206.503 688.218 206.36 688.317 206.266C688.415 206.167 688.534 206.118 688.675 206.118C688.731 206.118 688.786 206.125 688.838 206.139C688.891 206.153 688.947 206.16 689.007 206.16C689.147 206.16 689.286 206.153 689.423 206.139C689.564 206.125 689.711 206.118 689.866 206.118C690.017 206.118 690.121 206.165 690.177 206.26C690.236 206.355 690.266 206.489 690.266 206.661V206.766C690.544 206.534 690.837 206.364 691.146 206.255C691.456 206.143 691.744 206.086 692.011 206.086C692.45 206.086 692.84 206.15 693.18 206.276C693.521 206.403 693.811 206.591 694.05 206.84C694.198 206.721 694.352 206.613 694.514 206.519C694.675 206.424 694.837 206.345 694.998 206.281C695.164 206.218 695.325 206.171 695.483 206.139C695.641 206.104 695.792 206.086 695.936 206.086C696.379 206.086 696.781 206.153 697.143 206.287C697.505 206.417 697.814 206.61 698.071 206.866C698.331 207.123 698.531 207.439 698.671 207.815C698.812 208.187 698.882 208.618 698.882 209.106C698.882 209.261 698.872 209.436 698.851 209.633C698.833 209.826 698.807 210.026 698.772 210.234C698.736 210.437 698.694 210.639 698.645 210.84C698.596 211.036 698.543 211.214 698.487 211.372C698.533 211.358 698.57 211.349 698.598 211.346C698.626 211.342 698.65 211.34 698.671 211.34C698.794 211.34 698.893 211.363 698.967 211.409C699.04 211.454 699.097 211.509 699.135 211.572C699.177 211.635 699.204 211.702 699.214 211.772C699.228 211.839 699.235 211.895 699.235 211.941C699.235 212.05 699.216 212.139 699.177 212.21C699.139 212.276 699.07 212.334 698.972 212.384C698.877 212.429 698.747 212.471 698.582 212.51C698.42 212.549 698.215 212.594 697.965 212.647C697.856 212.675 697.767 212.698 697.697 212.716C697.63 212.733 697.568 212.742 697.512 212.742C697.4 212.742 697.303 212.724 697.222 212.689C697.141 212.658 697.075 212.616 697.022 212.563C696.973 212.507 696.936 212.442 696.911 212.368C696.887 212.291 696.874 212.21 696.874 212.125C696.874 212.034 696.899 211.932 696.948 211.82C696.997 211.704 697.062 211.6 697.143 211.509C697.224 211.375 697.298 211.214 697.365 211.024C697.431 210.831 697.488 210.625 697.533 210.408C697.582 210.19 697.619 209.968 697.644 209.744C697.668 209.519 697.681 209.306 697.681 209.106C697.681 208.825 697.646 208.568 697.575 208.337C697.509 208.105 697.401 207.906 697.254 207.741C697.11 207.576 696.925 207.448 696.701 207.356C696.479 207.265 696.216 207.219 695.91 207.219C695.756 207.219 695.617 207.232 695.494 207.256C695.374 207.277 695.262 207.309 695.157 207.351C695.055 207.393 694.958 207.446 694.867 207.509C694.775 207.572 694.684 207.646 694.593 207.731C694.737 208.124 694.809 208.582 694.809 209.106C694.809 209.264 694.798 209.443 694.777 209.643C694.756 209.844 694.726 210.049 694.688 210.26C694.649 210.471 694.6 210.678 694.54 210.882C694.48 211.086 694.414 211.272 694.34 211.44C694.396 211.43 694.454 211.414 694.514 211.393C694.573 211.368 694.638 211.356 694.709 211.356C694.825 211.356 694.918 211.379 694.988 211.425C695.062 211.47 695.116 211.526 695.151 211.593C695.19 211.656 695.215 211.727 695.225 211.804C695.239 211.878 695.246 211.945 695.246 212.004C695.246 212.117 695.223 212.206 695.178 212.273C695.135 212.336 695.079 212.387 695.009 212.426C694.939 212.461 694.858 212.487 694.767 212.505C694.675 212.519 694.582 212.531 694.487 212.542C694.392 212.552 694.299 212.565 694.208 212.579C694.12 212.596 694.041 212.623 693.971 212.658C693.96 212.665 693.936 212.672 693.897 212.679C693.858 212.689 693.816 212.698 693.771 212.705C693.729 212.716 693.685 212.724 693.639 212.731C693.597 212.738 693.563 212.742 693.539 212.742C693.423 212.742 693.324 212.721 693.244 212.679C693.163 212.637 693.096 212.582 693.043 212.515C692.994 212.449 692.957 212.375 692.933 212.294C692.912 212.213 692.901 212.134 692.901 212.057C692.901 211.966 692.915 211.874 692.943 211.783C692.971 211.688 693.01 211.6 693.059 211.519C693.137 211.379 693.209 211.212 693.275 211.019C693.342 210.822 693.398 210.617 693.444 210.402C693.493 210.184 693.532 209.965 693.56 209.744C693.588 209.519 693.602 209.306 693.602 209.106C693.602 208.825 693.574 208.568 693.518 208.337C693.465 208.105 693.375 207.906 693.249 207.741C693.122 207.576 692.956 207.448 692.748 207.356C692.545 207.265 692.292 207.219 691.99 207.219C691.691 207.219 691.398 207.284 691.109 207.414C690.825 207.541 690.544 207.745 690.266 208.026C690.266 208.184 690.265 208.38 690.261 208.616C690.261 208.848 690.261 209.094 690.261 209.354C690.261 209.614 690.261 209.872 690.261 210.128C690.261 210.385 690.261 210.615 690.261 210.819C690.265 211.022 690.266 211.187 690.266 211.314C690.27 211.437 690.273 211.493 690.277 211.483C690.34 211.465 690.391 211.451 690.43 211.44C690.472 211.426 690.505 211.416 690.53 211.409C690.558 211.402 690.579 211.398 690.593 211.398C690.607 211.395 690.623 211.393 690.64 211.393C690.83 211.393 690.974 211.44 691.073 211.535C691.171 211.627 691.22 211.762 691.22 211.941C691.22 212.074 691.194 212.18 691.141 212.257C691.088 212.334 691.022 212.396 690.941 212.442C690.86 212.487 690.769 212.521 690.667 212.542C690.565 212.559 690.467 212.573 690.372 212.584C690.312 212.591 690.251 212.603 690.187 212.621C690.124 212.638 690.061 212.656 689.998 212.673C689.934 212.691 689.871 212.707 689.808 212.721C689.745 212.735 689.687 212.742 689.634 212.742C689.427 212.742 689.284 212.693 689.207 212.594C689.13 212.5 689.091 212.366 689.091 212.194ZM700.816 209.701C700.816 209.371 700.851 209.015 700.922 208.632C700.995 208.249 701.113 207.882 701.275 207.53C701.204 207.551 701.139 207.562 701.08 207.562C700.946 207.562 700.843 207.539 700.769 207.493C700.695 207.444 700.641 207.388 700.605 207.325C700.574 207.262 700.554 207.197 700.547 207.13C700.544 207.063 700.542 207.01 700.542 206.972C700.542 206.866 700.56 206.78 700.595 206.714C700.63 206.643 700.679 206.587 700.742 206.545C700.806 206.503 700.883 206.469 700.974 206.445C701.069 206.42 701.174 206.396 701.29 206.371C701.35 206.364 701.415 206.348 701.485 206.324C701.556 206.295 701.624 206.267 701.691 206.239C701.782 206.201 701.879 206.165 701.981 206.134C702.083 206.102 702.188 206.086 702.297 206.086C702.409 206.086 702.504 206.102 702.581 206.134C702.662 206.165 702.727 206.209 702.776 206.266C702.829 206.318 702.866 206.382 702.887 206.455C702.912 206.526 702.924 206.601 702.924 206.682C702.924 206.784 702.901 206.887 702.856 206.993C702.81 207.098 702.745 207.198 702.661 207.293C702.548 207.42 702.45 207.576 702.365 207.762C702.281 207.948 702.209 208.15 702.149 208.368C702.093 208.582 702.049 208.806 702.018 209.037C701.99 209.266 701.975 209.487 701.975 209.701C701.975 210.362 702.111 210.848 702.381 211.161C702.655 211.474 703.058 211.63 703.588 211.63C703.76 211.63 703.932 211.605 704.104 211.556C704.28 211.507 704.45 211.44 704.616 211.356C704.784 211.268 704.944 211.166 705.095 211.05C705.25 210.931 705.394 210.803 705.527 210.666C705.534 210.367 705.54 210.091 705.543 209.838C705.547 209.582 705.548 209.333 705.548 209.09C705.548 208.943 705.548 208.804 705.548 208.674C705.548 208.54 705.547 208.41 705.543 208.284C705.54 208.154 705.536 208.02 705.532 207.883C705.529 207.743 705.524 207.59 705.517 207.425C705.408 207.457 705.304 207.481 705.206 207.499C705.107 207.516 705.034 207.525 704.984 207.525C704.911 207.525 704.84 207.513 704.774 207.488C704.707 207.464 704.647 207.427 704.594 207.377C704.542 207.328 704.5 207.267 704.468 207.193C704.436 207.116 704.421 207.026 704.421 206.924C704.421 206.815 704.44 206.728 704.479 206.661C704.521 206.591 704.579 206.536 704.652 206.497C704.73 206.455 704.821 206.422 704.926 206.397C705.032 206.373 705.15 206.346 705.28 206.318C705.353 206.308 705.424 206.29 705.49 206.266C705.561 206.237 705.631 206.211 705.701 206.187C705.771 206.158 705.843 206.136 705.917 206.118C705.991 206.097 706.068 206.086 706.149 206.086C706.275 206.086 706.372 206.109 706.439 206.155C706.506 206.197 706.555 206.257 706.586 206.334C706.618 206.408 706.636 206.497 706.639 206.603C706.646 206.705 706.65 206.814 706.65 206.93C706.65 207.031 706.65 207.163 706.65 207.325C706.65 207.483 706.651 207.662 706.655 207.862C706.655 208.438 706.66 209.025 706.671 209.622C706.681 210.216 706.687 210.852 706.687 211.53C706.687 211.625 706.692 211.721 706.702 211.82C706.716 211.915 706.723 212.018 706.723 212.131C706.723 212.226 706.716 212.31 706.702 212.384C706.692 212.454 706.662 212.514 706.613 212.563C706.567 212.612 706.497 212.651 706.402 212.679C706.311 212.71 706.182 212.728 706.017 212.731C705.912 212.731 705.822 212.71 705.749 212.668C705.678 212.63 705.62 212.58 705.575 212.521C705.532 212.461 705.501 212.398 705.48 212.331C705.462 212.261 705.453 212.197 705.453 212.141C705.453 212.103 705.455 212.073 705.459 212.052C705.466 212.027 705.473 211.997 705.48 211.962C705.318 212.103 705.151 212.222 704.979 212.32C704.811 212.415 704.644 212.494 704.479 212.558C704.313 212.617 704.152 212.661 703.994 212.689C703.839 212.717 703.695 212.731 703.562 212.731C702.648 212.731 701.961 212.473 701.501 211.957C701.045 211.44 700.816 210.689 700.816 209.701ZM709.058 212.189C709.058 212.125 709.06 212.06 709.063 211.994C709.07 211.927 709.077 211.862 709.084 211.799C709.095 211.704 709.105 211.6 709.116 211.488C709.126 211.375 709.132 211.249 709.132 211.108C709.132 210.834 709.13 210.576 709.126 210.334C709.126 210.088 709.123 209.835 709.116 209.575C709.116 209.568 709.116 209.557 709.116 209.543C709.116 209.526 709.114 209.492 709.111 209.443C709.111 209.394 709.109 209.322 709.105 209.227C709.105 209.132 709.104 208.999 709.1 208.827C709.097 208.654 709.091 208.44 709.084 208.184C709.081 207.924 709.075 207.608 709.068 207.235C709.023 207.242 708.968 207.249 708.905 207.256C708.845 207.26 708.773 207.262 708.689 207.262C708.626 207.262 708.561 207.251 708.494 207.23C708.431 207.209 708.371 207.177 708.315 207.135C708.262 207.089 708.218 207.031 708.183 206.961C708.151 206.887 708.136 206.798 708.136 206.692C708.136 206.503 708.183 206.36 708.278 206.266C708.376 206.167 708.496 206.118 708.636 206.118C708.692 206.118 708.747 206.125 708.8 206.139C708.852 206.153 708.909 206.16 708.968 206.16C709.039 206.16 709.111 206.158 709.184 206.155C709.258 206.151 709.33 206.146 709.4 206.139C709.478 206.132 709.553 206.127 709.627 206.123C709.704 206.12 709.773 206.118 709.832 206.118C709.977 206.118 710.096 206.165 710.191 206.26C710.286 206.355 710.333 206.489 710.333 206.661C710.333 206.703 710.331 206.752 710.328 206.808C710.328 206.865 710.324 206.919 710.317 206.972C710.437 206.856 710.572 206.745 710.723 206.64C710.874 206.534 711.037 206.441 711.213 206.36C711.392 206.276 711.584 206.209 711.788 206.16C711.991 206.111 712.207 206.086 712.436 206.086C712.882 206.086 713.272 206.16 713.606 206.308C713.943 206.452 714.224 206.663 714.449 206.94C714.677 207.214 714.847 207.551 714.96 207.952C715.076 208.352 715.134 208.807 715.134 209.317C715.134 209.471 715.123 209.633 715.102 209.802C715.081 209.97 715.051 210.139 715.013 210.307C714.977 210.476 714.933 210.645 714.881 210.813C714.832 210.978 714.775 211.135 714.712 211.282C714.793 211.258 714.87 211.237 714.944 211.219C715.018 211.201 715.079 211.189 715.128 211.182C715.522 211.144 715.719 211.323 715.719 211.72C715.719 211.769 715.713 211.823 715.703 211.883C715.692 211.939 715.671 211.995 715.64 212.052C715.608 212.104 715.564 212.155 715.508 212.204C715.452 212.25 715.38 212.289 715.292 212.32L714.723 212.452C714.547 212.505 714.405 212.549 714.296 212.584C714.19 212.623 714.101 212.652 714.027 212.673C713.957 212.698 713.897 212.714 713.848 212.721C713.799 212.731 713.744 212.735 713.685 212.731C713.6 212.731 713.527 212.71 713.463 212.668C713.4 212.63 713.347 212.58 713.305 212.521C713.263 212.457 713.231 212.389 713.21 212.315C713.189 212.241 713.179 212.169 713.179 212.099C713.179 211.987 713.195 211.872 713.226 211.757C713.258 211.641 713.314 211.535 713.395 211.44C713.493 211.314 713.576 211.172 713.642 211.014C713.713 210.855 713.769 210.685 713.811 210.502C713.853 210.32 713.883 210.128 713.901 209.928C713.922 209.728 713.932 209.524 713.932 209.317C713.932 209.078 713.906 208.835 713.853 208.59C713.804 208.34 713.718 208.115 713.595 207.915C713.476 207.711 713.316 207.546 713.115 207.42C712.919 207.29 712.671 207.225 712.372 207.225C712.165 207.225 711.961 207.258 711.761 207.325C711.564 207.388 711.375 207.474 711.192 207.583C711.013 207.688 710.844 207.81 710.686 207.947C710.528 208.084 710.389 208.224 710.27 208.368C710.266 208.526 710.263 208.686 710.259 208.848C710.259 209.006 710.259 209.166 710.259 209.327C710.252 209.601 710.247 209.874 710.244 210.144C710.24 210.415 710.238 210.689 710.238 210.966C710.238 211.047 710.238 211.129 710.238 211.214C710.238 211.295 710.242 211.381 710.249 211.472L710.391 211.43C710.43 211.419 710.467 211.411 710.502 211.403C710.54 211.393 710.574 211.388 710.602 211.388C710.792 211.388 710.936 211.435 711.034 211.53C711.132 211.621 711.182 211.757 711.182 211.936C711.182 212.069 711.155 212.176 711.102 212.257C711.05 212.334 710.983 212.396 710.902 212.442C710.821 212.484 710.732 212.514 710.633 212.531C710.539 212.549 710.446 212.563 710.354 212.573C710.305 212.58 710.258 212.586 710.212 212.589C710.166 212.596 710.128 212.605 710.096 212.616C709.984 212.647 709.887 212.673 709.806 212.695C709.725 212.719 709.655 212.731 709.595 212.731C709.388 212.731 709.246 212.684 709.169 212.589C709.095 212.494 709.058 212.361 709.058 212.189ZM718.654 205.317C718.57 205.356 718.482 205.375 718.39 205.375C718.299 205.372 718.215 205.352 718.137 205.317C718.064 205.278 717.999 205.224 717.942 205.154C717.886 205.083 717.851 204.999 717.837 204.901C717.827 204.834 717.828 204.758 717.842 204.674C717.86 204.586 717.881 204.499 717.906 204.411C717.934 204.319 717.958 204.232 717.979 204.147C718.004 204.059 718.02 203.98 718.027 203.91C718.037 203.752 718.085 203.62 718.169 203.515C718.253 203.409 718.38 203.344 718.548 203.32C718.671 203.299 718.787 203.306 718.896 203.341C719.005 203.376 719.086 203.453 719.139 203.573C719.156 203.611 719.17 203.657 719.181 203.71C719.195 203.759 719.205 203.803 719.212 203.842C719.216 203.877 719.214 203.921 719.207 203.973C719.204 204.026 719.195 204.082 719.181 204.142C719.167 204.198 719.149 204.256 719.128 204.316C719.111 204.372 719.093 204.421 719.075 204.463C719.047 204.523 719.028 204.588 719.017 204.658C719.01 204.725 719.002 204.787 718.991 204.843C718.981 204.899 718.97 204.95 718.959 204.996C718.949 205.041 718.931 205.083 718.907 205.122C718.886 205.161 718.854 205.196 718.812 205.227C718.773 205.259 718.721 205.289 718.654 205.317ZM717.753 212.183C717.753 212.096 717.756 212.022 717.763 211.962C717.774 211.902 717.783 211.837 717.79 211.767C717.8 211.693 717.809 211.607 717.816 211.509C717.827 211.411 717.832 211.277 717.832 211.108C717.832 210.48 717.83 209.856 717.827 209.238C717.823 208.616 717.814 207.959 717.8 207.267C717.747 207.27 717.688 207.274 717.621 207.277C717.554 207.281 717.484 207.284 717.41 207.288C717.34 207.288 717.271 207.29 717.205 207.293C717.138 207.293 717.078 207.293 717.026 207.293C716.962 207.293 716.897 207.284 716.831 207.267C716.767 207.246 716.709 207.212 716.657 207.167C716.604 207.121 716.56 207.063 716.525 206.993C716.49 206.919 716.472 206.829 716.472 206.724C716.472 206.538 716.521 206.397 716.62 206.302C716.722 206.204 716.841 206.155 716.978 206.155C717.112 206.155 717.243 206.162 717.373 206.176C717.507 206.187 717.637 206.192 717.763 206.192C717.893 206.192 718.023 206.187 718.153 206.176C718.283 206.162 718.406 206.155 718.522 206.155C718.701 206.155 718.83 206.202 718.907 206.297C718.984 206.392 719.023 206.524 719.023 206.692C719.023 206.836 719.01 206.979 718.986 207.119C718.961 207.256 718.949 207.404 718.949 207.562C718.949 207.878 718.947 208.196 718.944 208.516C718.94 208.835 718.937 209.16 718.933 209.491C718.933 209.821 718.931 210.158 718.928 210.502C718.928 210.847 718.931 211.201 718.938 211.567C718.995 211.563 719.046 211.555 719.091 211.54C719.137 211.526 719.181 211.512 719.223 211.498C719.265 211.481 719.309 211.467 719.355 211.456C719.404 211.442 719.458 211.435 719.518 211.435C719.609 211.435 719.683 211.446 719.739 211.467C719.799 211.488 719.847 211.518 719.882 211.556C719.917 211.591 719.943 211.637 719.961 211.693C719.978 211.746 719.994 211.804 720.008 211.867C720.033 212.032 719.992 212.164 719.887 212.262C719.782 212.361 719.638 212.438 719.455 212.494C719.349 212.522 719.241 212.551 719.128 212.579C719.019 212.607 718.916 212.631 718.817 212.652C718.719 212.677 718.629 212.696 718.548 212.71C718.468 212.724 718.404 212.731 718.359 212.731C718.151 212.731 717.999 212.682 717.9 212.584C717.802 212.489 717.753 212.356 717.753 212.183ZM722.011 211.05L721.979 207.335L721.341 207.341C721.261 207.341 721.19 207.325 721.131 207.293C721.071 207.258 721.02 207.212 720.978 207.156C720.939 207.096 720.909 207.03 720.888 206.956C720.867 206.882 720.857 206.805 720.857 206.724C720.857 206.587 720.872 206.483 720.904 206.413C720.939 206.339 720.988 206.287 721.052 206.255C721.115 206.22 721.192 206.201 721.283 206.197C721.375 206.19 721.48 206.187 721.6 206.187H721.974V205.992C721.974 205.862 721.972 205.756 721.968 205.675C721.968 205.595 721.968 205.54 721.968 205.512C721.968 205.41 721.958 205.308 721.937 205.206C721.919 205.105 721.91 205.001 721.91 204.895C721.91 204.808 721.921 204.73 721.942 204.664C721.963 204.597 721.998 204.541 722.047 204.495C722.1 204.446 722.169 204.409 722.253 204.384C722.337 204.36 722.441 204.347 722.564 204.347C722.648 204.347 722.727 204.354 722.801 204.369C722.878 204.383 722.945 204.411 723.001 204.453C723.061 204.491 723.108 204.546 723.144 204.616C723.179 204.686 723.196 204.778 723.196 204.89C723.196 205.041 723.182 205.191 723.154 205.338C723.13 205.486 723.119 205.639 723.123 205.797V206.181C723.397 206.174 723.609 206.169 723.76 206.165C723.915 206.162 724.039 206.158 724.134 206.155C724.148 206.155 724.161 206.155 724.171 206.155C724.185 206.151 724.198 206.15 724.208 206.15C724.25 206.146 724.298 206.144 724.35 206.144C724.403 206.144 724.445 206.144 724.477 206.144C724.544 206.144 724.609 206.155 724.672 206.176C724.735 206.197 724.789 206.232 724.835 206.281C724.884 206.331 724.923 206.394 724.951 206.471C724.979 206.548 724.993 206.641 724.993 206.75C724.993 206.835 724.986 206.914 724.972 206.988C724.958 207.061 724.932 207.126 724.893 207.183C724.854 207.239 724.798 207.284 724.724 207.32C724.651 207.351 724.556 207.367 724.44 207.367C724.331 207.367 724.22 207.362 724.108 207.351C723.999 207.337 723.887 207.328 723.771 207.325L723.133 207.33L723.17 211.488C723.314 211.463 723.44 211.44 723.549 211.419C723.658 211.398 723.76 211.377 723.855 211.356C723.95 211.335 724.043 211.31 724.134 211.282C724.226 211.254 724.326 211.219 724.435 211.177C724.494 211.145 724.565 211.114 724.645 211.082C724.726 211.047 724.811 211.029 724.898 211.029C725.071 211.029 725.206 211.089 725.304 211.209C725.402 211.324 725.452 211.477 725.452 211.667C725.452 211.716 725.439 211.771 725.415 211.83C725.394 211.89 725.36 211.95 725.315 212.009C725.269 212.066 725.209 212.118 725.136 212.168C725.065 212.213 724.981 212.247 724.883 212.268C724.777 212.289 724.656 212.315 724.519 212.347C724.382 212.378 724.238 212.412 724.087 212.447C723.936 212.482 723.785 212.517 723.634 212.552C723.483 212.587 723.34 212.617 723.207 212.642C723.073 212.67 722.956 212.693 722.854 212.71C722.752 212.728 722.675 212.735 722.622 212.731C722.559 212.731 722.488 212.723 722.411 212.705C722.337 212.691 722.269 212.663 722.206 212.621C722.142 212.582 722.09 212.528 722.047 212.457C722.009 212.384 721.99 212.291 721.99 212.178L722.011 211.05ZM726.874 213.748C726.874 213.692 726.885 213.629 726.906 213.559C726.931 213.489 726.968 213.422 727.017 213.359C727.069 213.299 727.136 213.248 727.217 213.206C727.298 213.164 727.396 213.142 727.512 213.142C727.565 213.142 727.616 213.153 727.665 213.174C727.714 213.199 727.76 213.229 727.802 213.264C727.844 213.302 727.883 213.343 727.918 213.385C727.957 213.427 727.992 213.466 728.023 213.501C728.129 213.631 728.238 213.734 728.35 213.812C728.462 213.889 728.578 213.947 728.698 213.986C728.821 214.028 728.949 214.054 729.082 214.065C729.216 214.079 729.356 214.086 729.504 214.086C729.775 214.086 730.024 214.054 730.252 213.991C730.484 213.931 730.684 213.826 730.853 213.675C731.022 213.527 731.155 213.327 731.254 213.074C731.355 212.825 731.412 212.512 731.422 212.136C731.422 212.129 731.42 212.122 731.417 212.115C731.417 212.108 731.417 212.101 731.417 212.094C731.322 212.185 731.213 212.269 731.09 212.347C730.971 212.424 730.835 212.491 730.684 212.547C730.537 212.603 730.374 212.647 730.194 212.679C730.015 212.714 729.818 212.731 729.604 212.731C729.186 212.731 728.787 212.675 728.408 212.563C728.029 212.45 727.695 212.266 727.407 212.009C727.119 211.753 726.889 211.421 726.716 211.014C726.548 210.603 726.463 210.098 726.463 209.501C726.463 209.382 726.474 209.246 726.495 209.095C726.516 208.941 726.548 208.779 726.59 208.611C726.632 208.442 726.685 208.272 726.748 208.099C726.815 207.927 726.894 207.762 726.985 207.604C726.968 207.608 726.95 207.609 726.932 207.609C726.918 207.609 726.903 207.609 726.885 207.609C726.804 207.609 726.729 207.594 726.658 207.562C726.592 207.53 726.532 207.49 726.479 207.441C726.43 207.392 726.391 207.337 726.363 207.277C726.335 207.218 726.321 207.16 726.321 207.103C726.321 207.012 726.335 206.931 726.363 206.861C726.391 206.787 726.439 206.722 726.506 206.666C726.576 206.606 726.667 206.555 726.78 206.513C726.892 206.468 727.033 206.427 727.201 206.392C727.335 206.364 727.459 206.334 727.575 206.302C727.695 206.267 727.798 206.236 727.886 206.208C728.002 206.172 728.104 206.144 728.192 206.123C728.283 206.099 728.375 206.086 728.466 206.086C728.613 206.086 728.738 206.136 728.84 206.234C728.945 206.329 728.998 206.457 728.998 206.619C728.998 206.699 728.982 206.786 728.951 206.877C728.923 206.965 728.859 207.044 728.761 207.114C728.663 207.153 728.566 207.218 728.471 207.309C728.376 207.4 728.287 207.509 728.202 207.636C728.118 207.762 728.041 207.901 727.971 208.052C727.9 208.203 727.839 208.359 727.786 208.521C727.737 208.679 727.698 208.839 727.67 209.001C727.642 209.162 727.628 209.315 727.628 209.459C727.628 209.859 727.681 210.198 727.786 210.476C727.895 210.75 728.039 210.973 728.218 211.145C728.397 211.314 728.605 211.435 728.84 211.509C729.075 211.583 729.323 211.62 729.583 211.62C730.04 211.62 730.414 211.549 730.706 211.409C731.001 211.265 731.234 211.047 731.406 210.755V210.634V207.43C731.354 207.448 731.297 207.465 731.238 207.483C731.178 207.5 731.118 207.516 731.059 207.53C731.002 207.544 730.95 207.557 730.9 207.567C730.851 207.574 730.811 207.578 730.779 207.578C730.706 207.578 730.632 207.569 730.558 207.551C730.488 207.534 730.423 207.506 730.363 207.467C730.307 207.425 730.259 207.37 730.221 207.304C730.186 207.237 730.168 207.153 730.168 207.051C730.168 206.882 730.212 206.747 730.3 206.645C730.388 206.54 730.53 206.471 730.727 206.439L731.543 206.208L731.538 206.213C731.612 206.174 731.696 206.144 731.791 206.123C731.886 206.099 731.96 206.086 732.012 206.086C732.051 206.086 732.102 206.09 732.165 206.097C732.232 206.104 732.295 206.127 732.355 206.165C732.418 206.201 732.473 206.26 732.518 206.345C732.564 206.429 732.587 206.547 732.587 206.698C732.587 206.74 732.585 206.782 732.581 206.824C732.578 206.866 732.573 206.903 732.566 206.935C732.566 206.935 732.566 206.942 732.566 206.956C732.566 206.97 732.564 207.017 732.56 207.098C732.56 207.179 732.56 207.305 732.56 207.478C732.56 207.65 732.559 207.894 732.555 208.21C732.555 208.526 732.553 208.929 732.55 209.417C732.546 209.902 732.543 210.499 732.539 211.209C732.539 211.363 732.545 211.519 732.555 211.678C732.566 211.832 732.571 212.006 732.571 212.199C732.571 212.786 732.494 213.272 732.339 213.659C732.188 214.049 731.974 214.358 731.696 214.586C731.422 214.815 731.094 214.975 730.711 215.066C730.328 215.161 729.908 215.208 729.451 215.208C729.121 215.208 728.801 215.171 728.492 215.097C728.183 215.027 727.907 214.927 727.665 214.797C727.426 214.667 727.235 214.513 727.091 214.333C726.946 214.154 726.874 213.959 726.874 213.748ZM738.094 208.595C738.094 208.089 738.148 207.632 738.257 207.225C738.369 206.814 738.522 206.448 738.715 206.129C738.909 205.809 739.135 205.533 739.395 205.301C739.655 205.069 739.936 204.878 740.238 204.727C740.54 204.576 740.855 204.465 741.182 204.395C741.512 204.321 741.84 204.284 742.167 204.284C742.466 204.284 742.759 204.312 743.047 204.369C743.335 204.421 743.62 204.497 743.901 204.595C743.985 204.627 744.069 204.658 744.154 204.69C744.241 204.718 744.319 204.755 744.385 204.801C744.456 204.846 744.512 204.904 744.554 204.975C744.596 205.045 744.617 205.134 744.617 205.243C744.617 205.37 744.596 205.475 744.554 205.559C744.515 205.64 744.465 205.705 744.401 205.754C744.338 205.804 744.268 205.839 744.19 205.86C744.117 205.881 744.045 205.891 743.974 205.891C743.925 205.891 743.873 205.884 743.816 205.87C743.76 205.853 743.702 205.832 743.642 205.807C743.583 205.783 743.525 205.754 743.469 205.723C743.412 205.688 743.361 205.654 743.316 205.623C743.189 205.57 743.07 205.531 742.957 205.507C742.848 205.479 742.743 205.459 742.641 205.449C742.539 205.435 742.439 205.428 742.341 205.428C742.242 205.424 742.144 205.422 742.046 205.422C741.824 205.422 741.603 205.449 741.382 205.501C741.16 205.551 740.946 205.63 740.739 205.739C740.535 205.844 740.344 205.978 740.164 206.139C739.985 206.301 739.829 206.494 739.695 206.719C739.566 206.94 739.462 207.193 739.385 207.478C739.311 207.762 739.274 208.08 739.274 208.431C739.274 209.015 739.356 209.508 739.522 209.912C739.69 210.313 739.908 210.638 740.175 210.887C740.446 211.136 740.749 211.317 741.087 211.43C741.424 211.539 741.765 211.593 742.109 211.593C742.267 211.593 742.422 211.584 742.573 211.567C742.727 211.546 742.87 211.521 743 211.493C743.133 211.461 743.251 211.428 743.353 211.393C743.454 211.354 743.532 211.316 743.584 211.277C743.69 211.186 743.783 211.117 743.864 211.071C743.945 211.022 744.038 210.998 744.143 210.998C744.224 210.998 744.299 211.007 744.37 211.024C744.443 211.042 744.507 211.073 744.559 211.119C744.612 211.161 744.654 211.217 744.686 211.288C744.717 211.358 744.733 211.446 744.733 211.551C744.733 211.699 744.682 211.834 744.58 211.957C744.482 212.076 744.322 212.189 744.101 212.294V212.289C744.027 212.331 743.918 212.378 743.774 212.431C743.634 212.484 743.474 212.533 743.295 212.579C743.119 212.621 742.933 212.656 742.736 212.684C742.539 212.716 742.346 212.731 742.156 212.731C741.724 212.731 741.324 212.68 740.955 212.579C740.59 212.473 740.256 212.329 739.954 212.147C739.655 211.96 739.39 211.739 739.158 211.483C738.926 211.226 738.731 210.945 738.573 210.639C738.415 210.334 738.296 210.009 738.215 209.665C738.134 209.317 738.094 208.96 738.094 208.595ZM747.284 210.202C747.351 210.465 747.449 210.687 747.579 210.866C747.712 211.042 747.862 211.184 748.027 211.293C748.192 211.402 748.366 211.481 748.548 211.53C748.735 211.576 748.916 211.598 749.091 211.598C749.365 211.598 749.609 211.576 749.824 211.53C750.038 211.481 750.221 211.423 750.372 211.356C750.526 211.286 750.651 211.214 750.746 211.14C750.841 211.066 750.908 211.001 750.946 210.945C750.981 210.892 751.02 210.843 751.062 210.797C751.108 210.748 751.155 210.706 751.204 210.671C751.257 210.632 751.308 210.603 751.357 210.581C751.41 210.56 751.459 210.55 751.505 210.55C751.68 210.55 751.816 210.603 751.91 210.708C752.009 210.81 752.058 210.949 752.058 211.124C752.058 211.191 752.033 211.275 751.984 211.377C751.935 211.479 751.844 211.591 751.71 211.714C751.563 211.851 751.398 211.981 751.215 212.104C751.036 212.227 750.837 212.336 750.619 212.431C750.402 212.522 750.164 212.594 749.908 212.647C749.655 212.703 749.381 212.731 749.086 212.731C748.738 212.731 748.42 212.684 748.132 212.589C747.844 212.498 747.586 212.373 747.358 212.215C747.129 212.053 746.931 211.867 746.762 211.656C746.593 211.446 746.453 211.221 746.34 210.982C746.228 210.743 746.144 210.497 746.088 210.244C746.031 209.991 746.003 209.745 746.003 209.506C746.003 208.986 746.088 208.517 746.256 208.099C746.425 207.678 746.657 207.318 746.952 207.019C747.247 206.721 747.596 206.49 748 206.329C748.404 206.167 748.842 206.086 749.313 206.086C749.65 206.086 749.966 206.137 750.261 206.239C750.556 206.338 750.818 206.478 751.046 206.661C751.278 206.84 751.471 207.056 751.626 207.309C751.784 207.558 751.895 207.834 751.958 208.136C752.028 208.196 752.079 208.275 752.111 208.373C752.146 208.468 752.163 208.563 752.163 208.658C752.163 208.816 752.109 208.946 752 209.048C751.895 209.146 751.761 209.215 751.6 209.253C751.245 209.345 750.89 209.429 750.535 209.506C750.18 209.584 749.824 209.659 749.465 209.733C749.107 209.807 748.745 209.882 748.38 209.96C748.018 210.037 747.653 210.118 747.284 210.202ZM747.194 209.227C747.791 209.087 748.396 208.955 749.007 208.832C749.618 208.709 750.24 208.572 750.872 208.421C750.813 208.259 750.732 208.106 750.63 207.962C750.528 207.815 750.409 207.687 750.272 207.578C750.135 207.469 749.982 207.383 749.813 207.32C749.648 207.256 749.469 207.225 749.276 207.225C748.977 207.225 748.705 207.274 748.459 207.372C748.216 207.467 748.006 207.602 747.827 207.778C747.647 207.95 747.503 208.161 747.394 208.41C747.286 208.656 747.219 208.929 747.194 209.227ZM754.282 212.189C754.282 212.125 754.284 212.06 754.287 211.994C754.294 211.927 754.301 211.862 754.308 211.799C754.319 211.704 754.329 211.6 754.34 211.488C754.35 211.375 754.356 211.249 754.356 211.108C754.356 210.834 754.354 210.576 754.35 210.334C754.35 210.088 754.347 209.835 754.34 209.575C754.34 209.568 754.34 209.557 754.34 209.543C754.34 209.526 754.338 209.492 754.335 209.443C754.335 209.394 754.333 209.322 754.329 209.227C754.329 209.132 754.328 208.999 754.324 208.827C754.32 208.654 754.315 208.44 754.308 208.184C754.305 207.924 754.299 207.608 754.292 207.235C754.247 207.242 754.192 207.249 754.129 207.256C754.069 207.26 753.997 207.262 753.913 207.262C753.85 207.262 753.785 207.251 753.718 207.23C753.655 207.209 753.595 207.177 753.539 207.135C753.486 207.089 753.442 207.031 753.407 206.961C753.375 206.887 753.36 206.798 753.36 206.692C753.36 206.503 753.407 206.36 753.502 206.266C753.6 206.167 753.72 206.118 753.86 206.118C753.916 206.118 753.971 206.125 754.024 206.139C754.076 206.153 754.133 206.16 754.192 206.16C754.263 206.16 754.335 206.158 754.408 206.155C754.482 206.151 754.554 206.146 754.624 206.139C754.702 206.132 754.777 206.127 754.851 206.123C754.928 206.12 754.997 206.118 755.056 206.118C755.201 206.118 755.32 206.165 755.415 206.26C755.51 206.355 755.557 206.489 755.557 206.661C755.557 206.703 755.555 206.752 755.552 206.808C755.552 206.865 755.548 206.919 755.541 206.972C755.661 206.856 755.796 206.745 755.947 206.64C756.098 206.534 756.261 206.441 756.437 206.36C756.616 206.276 756.808 206.209 757.012 206.16C757.215 206.111 757.431 206.086 757.66 206.086C758.106 206.086 758.496 206.16 758.83 206.308C759.167 206.452 759.448 206.663 759.673 206.94C759.901 207.214 760.071 207.551 760.184 207.952C760.3 208.352 760.358 208.807 760.358 209.317C760.358 209.471 760.347 209.633 760.326 209.802C760.305 209.97 760.275 210.139 760.237 210.307C760.201 210.476 760.157 210.645 760.105 210.813C760.056 210.978 759.999 211.135 759.936 211.282C760.017 211.258 760.094 211.237 760.168 211.219C760.242 211.201 760.303 211.189 760.352 211.182C760.746 211.144 760.943 211.323 760.943 211.72C760.943 211.769 760.937 211.823 760.927 211.883C760.916 211.939 760.895 211.995 760.864 212.052C760.832 212.104 760.788 212.155 760.732 212.204C760.676 212.25 760.604 212.289 760.516 212.32L759.947 212.452C759.771 212.505 759.629 212.549 759.52 212.584C759.414 212.623 759.325 212.652 759.251 212.673C759.181 212.698 759.121 212.714 759.072 212.721C759.023 212.731 758.968 212.735 758.909 212.731C758.824 212.731 758.75 212.71 758.687 212.668C758.624 212.63 758.571 212.58 758.529 212.521C758.487 212.457 758.455 212.389 758.434 212.315C758.413 212.241 758.403 212.169 758.403 212.099C758.403 211.987 758.418 211.872 758.45 211.757C758.482 211.641 758.538 211.535 758.619 211.44C758.717 211.314 758.8 211.172 758.866 211.014C758.937 210.855 758.993 210.685 759.035 210.502C759.077 210.32 759.107 210.128 759.125 209.928C759.146 209.728 759.156 209.524 759.156 209.317C759.156 209.078 759.13 208.835 759.077 208.59C759.028 208.34 758.942 208.115 758.819 207.915C758.7 207.711 758.54 207.546 758.339 207.42C758.143 207.29 757.895 207.225 757.596 207.225C757.389 207.225 757.185 207.258 756.985 207.325C756.788 207.388 756.599 207.474 756.416 207.583C756.237 207.688 756.068 207.81 755.91 207.947C755.752 208.084 755.613 208.224 755.494 208.368C755.49 208.526 755.487 208.686 755.483 208.848C755.483 209.006 755.483 209.166 755.483 209.327C755.476 209.601 755.471 209.874 755.467 210.144C755.464 210.415 755.462 210.689 755.462 210.966C755.462 211.047 755.462 211.129 755.462 211.214C755.462 211.295 755.466 211.381 755.473 211.472L755.615 211.43C755.654 211.419 755.691 211.411 755.726 211.403C755.764 211.393 755.798 211.388 755.826 211.388C756.016 211.388 756.16 211.435 756.258 211.53C756.356 211.621 756.405 211.757 756.405 211.936C756.405 212.069 756.379 212.176 756.326 212.257C756.274 212.334 756.207 212.396 756.126 212.442C756.045 212.484 755.956 212.514 755.857 212.531C755.763 212.549 755.67 212.563 755.578 212.573C755.529 212.58 755.482 212.586 755.436 212.589C755.39 212.596 755.352 212.605 755.32 212.616C755.208 212.647 755.111 212.673 755.03 212.695C754.949 212.719 754.879 212.731 754.819 212.731C754.612 212.731 754.47 212.684 754.392 212.589C754.319 212.494 754.282 212.361 754.282 212.189ZM762.84 211.05L762.808 207.335L762.17 207.341C762.09 207.341 762.019 207.325 761.96 207.293C761.9 207.258 761.849 207.212 761.807 207.156C761.768 207.096 761.738 207.03 761.717 206.956C761.696 206.882 761.686 206.805 761.686 206.724C761.686 206.587 761.701 206.483 761.733 206.413C761.768 206.339 761.817 206.287 761.881 206.255C761.944 206.22 762.021 206.201 762.113 206.197C762.204 206.19 762.309 206.187 762.429 206.187H762.803V205.992C762.803 205.862 762.801 205.756 762.798 205.675C762.798 205.595 762.798 205.54 762.798 205.512C762.798 205.41 762.787 205.308 762.766 205.206C762.748 205.105 762.74 205.001 762.74 204.895C762.74 204.808 762.75 204.73 762.771 204.664C762.792 204.597 762.827 204.541 762.877 204.495C762.929 204.446 762.998 204.409 763.082 204.384C763.166 204.36 763.27 204.347 763.393 204.347C763.477 204.347 763.556 204.354 763.63 204.369C763.707 204.383 763.774 204.411 763.83 204.453C763.89 204.491 763.938 204.546 763.973 204.616C764.008 204.686 764.025 204.778 764.025 204.89C764.025 205.041 764.011 205.191 763.983 205.338C763.959 205.486 763.948 205.639 763.952 205.797V206.181C764.226 206.174 764.438 206.169 764.589 206.165C764.744 206.162 764.869 206.158 764.963 206.155C764.977 206.155 764.99 206.155 765 206.155C765.014 206.151 765.027 206.15 765.037 206.15C765.079 206.146 765.127 206.144 765.179 206.144C765.232 206.144 765.274 206.144 765.306 206.144C765.373 206.144 765.438 206.155 765.501 206.176C765.564 206.197 765.619 206.232 765.664 206.281C765.713 206.331 765.752 206.394 765.78 206.471C765.808 206.548 765.822 206.641 765.822 206.75C765.822 206.835 765.815 206.914 765.801 206.988C765.787 207.061 765.761 207.126 765.722 207.183C765.684 207.239 765.627 207.284 765.554 207.32C765.48 207.351 765.385 207.367 765.269 207.367C765.16 207.367 765.049 207.362 764.937 207.351C764.828 207.337 764.716 207.328 764.6 207.325L763.962 207.33L763.999 211.488C764.143 211.463 764.27 211.44 764.378 211.419C764.487 211.398 764.589 211.377 764.684 211.356C764.779 211.335 764.872 211.31 764.963 211.282C765.055 211.254 765.155 211.219 765.264 211.177C765.323 211.145 765.394 211.114 765.475 211.082C765.555 211.047 765.64 211.029 765.727 211.029C765.9 211.029 766.035 211.089 766.133 211.209C766.232 211.324 766.281 211.477 766.281 211.667C766.281 211.716 766.268 211.771 766.244 211.83C766.223 211.89 766.189 211.95 766.144 212.009C766.098 212.066 766.038 212.118 765.965 212.168C765.894 212.213 765.81 212.247 765.712 212.268C765.606 212.289 765.485 212.315 765.348 212.347C765.211 212.378 765.067 212.412 764.916 212.447C764.765 212.482 764.614 212.517 764.463 212.552C764.312 212.587 764.169 212.617 764.036 212.642C763.902 212.67 763.785 212.693 763.683 212.71C763.581 212.728 763.504 212.735 763.451 212.731C763.388 212.731 763.317 212.723 763.24 212.705C763.166 212.691 763.098 212.663 763.035 212.621C762.971 212.582 762.919 212.528 762.877 212.457C762.838 212.384 762.819 212.291 762.819 212.178L762.84 211.05ZM767.735 212.11C767.735 211.987 767.737 211.864 767.74 211.741C767.744 211.618 767.747 211.483 767.751 211.335V207.272C767.751 207.174 767.74 207.075 767.719 206.977C767.698 206.875 767.688 206.77 767.688 206.661C767.688 206.475 767.755 206.332 767.888 206.234C768.022 206.136 768.202 206.086 768.431 206.086C768.529 206.086 768.615 206.104 768.689 206.139C768.763 206.171 768.824 206.213 768.873 206.266C768.923 206.318 768.96 206.378 768.984 206.445C769.009 206.512 769.021 206.58 769.021 206.65C769.021 206.71 769.016 206.771 769.005 206.835C768.998 206.894 768.989 206.954 768.979 207.014C769.516 206.88 769.973 206.759 770.349 206.65C770.728 206.541 771.025 206.452 771.24 206.382C771.285 206.301 771.348 206.232 771.429 206.176C771.514 206.116 771.622 206.086 771.756 206.086C771.949 206.086 772.102 206.137 772.214 206.239C772.33 206.338 772.388 206.462 772.388 206.613C772.388 206.673 772.385 206.735 772.378 206.798C772.371 206.861 772.367 206.924 772.367 206.988C772.346 207.202 772.341 207.42 772.351 207.641C772.365 207.862 772.381 208.085 772.399 208.31C772.406 208.38 772.409 208.456 772.409 208.537C772.413 208.614 772.415 208.693 772.415 208.774C772.415 208.858 772.394 208.929 772.351 208.985C772.309 209.041 772.255 209.087 772.188 209.122C772.125 209.153 772.055 209.176 771.977 209.19C771.9 209.204 771.824 209.211 771.751 209.211C771.645 209.211 771.557 209.194 771.487 209.159C771.417 209.12 771.359 209.073 771.313 209.016C771.271 208.957 771.24 208.892 771.218 208.821C771.201 208.748 771.192 208.676 771.192 208.605C771.192 208.444 771.194 208.28 771.197 208.115C771.201 207.947 771.204 207.762 771.208 207.562C771.074 207.594 770.89 207.636 770.655 207.688C770.423 207.741 770.168 207.797 769.89 207.857C769.732 207.896 769.576 207.933 769.421 207.968C769.267 207.999 769.111 208.033 768.952 208.068V211.509L769.111 211.461C769.181 211.437 769.248 211.416 769.311 211.398C769.374 211.377 769.446 211.363 769.527 211.356C769.594 211.363 769.659 211.379 769.722 211.403C769.789 211.428 769.847 211.463 769.896 211.509C769.948 211.555 769.991 211.613 770.022 211.683C770.054 211.75 770.07 211.827 770.07 211.915C770.07 211.995 770.056 212.073 770.027 212.147C770.003 212.22 769.968 212.287 769.922 212.347C769.876 212.403 769.822 212.45 769.759 212.489C769.699 212.524 769.632 212.543 769.558 212.547C769.509 212.554 769.443 212.565 769.358 212.579C769.274 212.596 769.176 212.616 769.063 212.637C768.884 212.672 768.738 212.696 768.626 212.71C768.517 212.724 768.426 212.731 768.352 212.731C768.271 212.731 768.192 212.717 768.115 212.689C768.041 212.665 767.976 212.626 767.92 212.573C767.863 212.521 767.818 212.456 767.783 212.378C767.751 212.301 767.735 212.211 767.735 212.11ZM775.086 210.202C775.153 210.465 775.251 210.687 775.381 210.866C775.515 211.042 775.664 211.184 775.829 211.293C775.994 211.402 776.168 211.481 776.351 211.53C776.537 211.576 776.718 211.598 776.894 211.598C777.168 211.598 777.412 211.576 777.626 211.53C777.841 211.481 778.023 211.423 778.174 211.356C778.329 211.286 778.454 211.214 778.548 211.14C778.643 211.066 778.71 211.001 778.749 210.945C778.784 210.892 778.823 210.843 778.865 210.797C778.91 210.748 778.958 210.706 779.007 210.671C779.06 210.632 779.111 210.603 779.16 210.581C779.212 210.56 779.262 210.55 779.307 210.55C779.483 210.55 779.618 210.603 779.713 210.708C779.811 210.81 779.861 210.949 779.861 211.124C779.861 211.191 779.836 211.275 779.787 211.377C779.738 211.479 779.646 211.591 779.513 211.714C779.365 211.851 779.2 211.981 779.017 212.104C778.838 212.227 778.64 212.336 778.422 212.431C778.204 212.522 777.967 212.594 777.711 212.647C777.458 212.703 777.184 212.731 776.889 212.731C776.541 212.731 776.223 212.684 775.935 212.589C775.647 212.498 775.388 212.373 775.16 212.215C774.932 212.053 774.733 211.867 774.565 211.656C774.396 211.446 774.255 211.221 774.143 210.982C774.031 210.743 773.946 210.497 773.89 210.244C773.834 209.991 773.806 209.745 773.806 209.506C773.806 208.986 773.89 208.517 774.059 208.099C774.227 207.678 774.459 207.318 774.754 207.019C775.049 206.721 775.399 206.49 775.803 206.329C776.207 206.167 776.644 206.086 777.115 206.086C777.452 206.086 777.769 206.137 778.064 206.239C778.359 206.338 778.621 206.478 778.849 206.661C779.081 206.84 779.274 207.056 779.429 207.309C779.587 207.558 779.697 207.834 779.76 208.136C779.831 208.196 779.882 208.275 779.913 208.373C779.948 208.468 779.966 208.563 779.966 208.658C779.966 208.816 779.912 208.946 779.803 209.048C779.697 209.146 779.564 209.215 779.402 209.253C779.047 209.345 778.693 209.429 778.338 209.506C777.983 209.584 777.626 209.659 777.268 209.733C776.91 209.807 776.548 209.882 776.182 209.96C775.821 210.037 775.455 210.118 775.086 210.202ZM774.997 209.227C775.594 209.087 776.198 208.955 776.81 208.832C777.421 208.709 778.043 208.572 778.675 208.421C778.615 208.259 778.534 208.106 778.433 207.962C778.331 207.815 778.211 207.687 778.074 207.578C777.937 207.469 777.784 207.383 777.616 207.32C777.451 207.256 777.271 207.225 777.078 207.225C776.78 207.225 776.507 207.274 776.261 207.372C776.019 207.467 775.808 207.602 775.629 207.778C775.45 207.95 775.306 208.161 775.197 208.41C775.088 208.656 775.021 208.929 774.997 209.227Z" fill="#003030"/>
<path d="M288 383H0C0 364.222 45.9595 349 102.653 349C159.347 349 288 383 288 383Z" fill="#142938"/>
<path d="M107.823 314.384C94.2262 314.384 82.3623 322.426 76.0307 334.382H64.8516V354.68L87.2098 352.893C87.8404 341.099 96.8092 331.738 107.82 331.738C118.83 331.738 127.799 341.099 128.429 352.893L150.787 354.423V334.382H139.608C133.28 322.426 121.413 314.384 107.816 314.384H107.823Z" fill="#142938"/>
<path d="M1352.68 345.602L1348.31 306.489L1337.03 302.859L1332.69 299.158L1328.91 300.638L1325.21 296.937L1320.32 306.489L1315.96 345.602L1315.96 351.028H1352.68V345.602ZM1331.6 330.228H1337.03V345.602H1331.6V330.228Z" fill="#142938"/>
<path d="M1140 390.221H1443C1443 367.618 1394.65 349.295 1335 349.295C1275.35 349.295 1140 390.221 1140 390.221Z" fill="#142938"/>
</g>
<defs>
<clipPath id="clip0_416_105">
<rect width="1443" height="383" fill="white"/>
</clipPath>
</defs>
</svg>
