<svg width="150" height="120" viewBox="0 0 150 120" fill="none" xmlns="http://www.w3.org/2000/svg">
<path d="M57.8281 74.9375V55.9062H93.1719V74.9375L98.6094 76.127V53.1875C98.6094 51.6861 97.3921 50.4688 95.8906 50.4688H55.1094C53.6079 50.4688 52.3906 51.6861 52.3906 53.1875V75.6172L57.8281 74.9375Z" fill="#0D121D"/>
<path d="M116.281 26H34.7188C33.2173 26 32 27.216 32 28.7188V85.8125C32 87.3126 33.2173 88.5312 34.7188 88.5312H56.4688V104.844C56.4688 106.344 57.6861 107.562 59.1875 107.562C60.6889 107.562 61.9062 106.344 61.9062 104.844V102.125H67.3438V104.844C67.3438 106.344 68.5611 107.562 70.0625 107.562C71.5639 107.562 72.7812 106.344 72.7812 104.844V102.125H78.2188V104.844C78.2188 106.344 79.4361 107.562 80.9375 107.562C82.4389 107.562 83.6562 106.344 83.6562 104.844V102.125H89.0938V104.844C89.0938 106.344 90.3111 107.562 91.8125 107.562C93.3139 107.562 94.5312 106.344 94.5312 104.844V88.5312H116.281C117.783 88.5312 119 87.3126 119 85.8125V28.7188C119 27.216 117.783 26 116.281 26ZM67.3438 96.6875H61.9062V91.25H67.3438V96.6875ZM67.3438 85.8125H61.9062V80.375H67.3438V85.8125ZM78.2188 96.6875H72.7812V91.25H78.2188V96.6875ZM78.2188 85.8125H72.7812V80.375H78.2188V85.8125ZM89.0938 96.6875H83.6562V91.25H89.0938V96.6875ZM89.0938 85.8125H83.6562V80.375H89.0938V85.8125ZM113.562 83.0938H94.5312V80.375H97.25C98.7514 80.375 99.9688 79.1577 99.9688 77.6562C99.9688 76.1548 98.7514 74.9375 97.25 74.9375H53.75C52.2486 74.9375 51.0312 76.1548 51.0312 77.6562C51.0312 79.1577 52.2486 80.375 53.75 80.375H56.4688V83.0938H37.4375V31.4375H113.562V83.0938Z" fill="#0D121D"/>
</svg>
