<svg width="150" height="120" viewBox="0 0 150 120" fill="none" xmlns="http://www.w3.org/2000/svg">
<path d="M41.9987 80.4106H42.7449C44.6069 80.4106 46.1186 78.9191 46.1186 77.0791C46.1186 75.2391 44.6069 73.7452 42.7449 73.7452H42.3201C47.395 69.2021 58.5405 49.5902 58.5405 42H36V73.7453V74.6226V77.7787V80.4107V109H48.0596C48.0621 108.649 48.0693 108.3 48.0693 107.947C48.0693 99.8803 47.7741 88.98 42.9224 81.6389C42.6177 81.1765 42.3082 80.7734 41.9987 80.4106Z" fill="#0D121D"/>
<path d="M92.0859 42C92.0859 49.5902 103.231 69.2021 108.306 73.7453H107.882C106.017 73.7453 104.508 75.2392 104.508 77.0792C104.508 78.9193 106.017 80.4107 107.882 80.4107H108.628C108.318 80.7736 108.009 81.1766 107.704 81.639C102.852 88.9802 102.557 99.8804 102.557 107.947C102.557 108.3 102.562 108.649 102.567 109H114.626V80.4106V77.7785V74.6225V73.7452V42H92.0859Z" fill="#0D121D"/>
<path d="M52.3438 86.2698C52.3438 89.4069 54.9207 91.9513 58.0952 91.9513C61.2722 91.9513 63.8467 89.4069 63.8467 86.2698C63.8467 83.1303 61.272 80.5837 58.0952 80.5837C54.9207 80.5837 52.3438 83.1303 52.3438 86.2698Z" fill="#0D121D"/>
<path d="M58.0949 94.9814C53.879 94.9814 50.8125 99.9063 50.8125 102.939C50.8125 105.97 50.8125 109 50.8125 109H65.3795C65.3795 109 65.3795 105.97 65.3795 102.939C65.3795 99.9063 62.313 94.9814 58.0949 94.9814Z" fill="#0D121D"/>
<path d="M75.314 91.9513C78.4909 91.9513 81.0655 89.4069 81.0655 86.2698C81.0655 83.1303 78.4908 80.5837 75.314 80.5837C72.1395 80.5837 69.5625 83.1303 69.5625 86.2698C69.5625 89.4071 72.1395 91.9513 75.314 91.9513Z" fill="#0D121D"/>
<path d="M75.3122 94.9814C71.0939 94.9814 68.0273 99.9063 68.0273 102.939C68.0273 105.97 68.0273 109 68.0273 109H82.5968C82.5968 109 82.5968 105.97 82.5968 102.939C82.597 99.9063 79.5305 94.9814 75.3122 94.9814Z" fill="#0D121D"/>
<path d="M92.5288 91.9513C95.7058 91.9513 98.2803 89.4069 98.2803 86.2698C98.2803 83.1303 95.7056 80.5837 92.5288 80.5837C89.352 80.5837 86.7773 83.1303 86.7773 86.2698C86.7773 89.4071 89.352 91.9513 92.5288 91.9513Z" fill="#0D121D"/>
<path d="M92.5285 94.9814C88.3126 94.9814 85.2461 99.9063 85.2461 102.939C85.2461 105.97 85.2461 109 85.2461 109H99.8131C99.8131 109 99.8131 105.97 99.8131 102.939C99.8133 99.9063 96.7444 94.9814 92.5285 94.9814Z" fill="#0D121D"/>
</svg>
