<svg width="80" height="80" viewBox="0 0 80 80" fill="none" xmlns="http://www.w3.org/2000/svg">
<path d="M40.166 10C23.5747 10 10 23.5445 10 40.2264C10 55.3094 21.0407 67.8282 35.4601 70.0907V48.9745H27.7979V40.2264H35.4601V33.5596C35.4601 25.988 39.9548 21.8251 46.8628 21.8251C50.1509 21.8251 53.5898 22.3982 53.5898 22.3982V29.8492H49.7889C46.0483 29.8492 44.8719 32.172 44.8719 34.5552V40.2264H53.258L51.9005 48.9745H44.8719V70.0907C51.9802 68.9679 58.4532 65.3411 63.122 59.8644C67.7908 54.3881 70.3482 47.4228 70.332 40.2264C70.332 23.5445 56.7573 10 40.166 10Z" fill="white"/>
</svg>
