<svg width="80" height="80" viewBox="0 0 80 80" fill="none" xmlns="http://www.w3.org/2000/svg">
<path fill-rule="evenodd" clip-rule="evenodd" d="M28.75 10H51.25C61.6038 10 70 18.3962 70 28.75V51.25C70 61.6038 61.6038 70 51.25 70H28.75C18.3962 70 10 61.6038 10 51.25V28.75C10 18.3962 18.3962 10 28.75 10ZM51.2501 64.375C58.4876 64.375 64.3751 58.4875 64.3751 51.25V28.75C64.3751 21.5125 58.4876 15.625 51.2501 15.625H28.7501C21.5126 15.625 15.6251 21.5125 15.6251 28.75V51.25C15.6251 58.4875 21.5126 64.375 28.7501 64.375H51.2501Z" fill="#0D121D"/>
<path fill-rule="evenodd" clip-rule="evenodd" d="M25 40C25 31.7162 31.7162 25 40 25C48.2838 25 55 31.7162 55 40C55 48.2838 48.2838 55 40 55C31.7162 55 25 48.2838 25 40ZM30.6251 40C30.6251 45.1675 34.8326 49.375 40.0001 49.375C45.1676 49.375 49.3751 45.1675 49.3751 40C49.3751 34.8288 45.1676 30.625 40.0001 30.625C34.8326 30.625 30.6251 34.8288 30.6251 40Z" fill="#0D121D"/>
<circle cx="56.1237" cy="23.8747" r="1.99875" fill="#0D121D"/>
</svg>
