<svg width="150" height="120" viewBox="0 0 150 120" fill="none" xmlns="http://www.w3.org/2000/svg">
<path d="M41.5254 82.9255C45.6854 82.9255 49.0478 79.5565 49.0478 75.4001C49.0478 71.2449 45.6854 67.8745 41.5254 67.8745C37.369 67.8744 34 71.2449 34 75.4001C34 79.5565 37.369 82.9255 41.5254 82.9255Z" fill="#0D121D"/>
<path d="M41.517 85.4922C37.4706 85.4922 34.168 88.7728 34.168 92.8396V101.976H42.8737L48.4909 90.5012C47.5283 87.5738 44.7787 85.4922 41.517 85.4922Z" fill="#0D121D"/>
<path d="M53.8384 68.5378C57.5634 68.5378 60.5778 65.522 60.5778 61.7955C60.5778 58.0753 57.5634 55.0547 53.8384 55.0547C50.1151 55.0547 47.0977 58.0753 47.0977 61.7955C47.0977 65.522 50.1152 68.5378 53.8384 68.5378Z" fill="#0D121D"/>
<path d="M47.2344 84.156V85.6089H50.8868L57.5678 71.9933C56.5074 71.2464 55.2295 70.8352 53.8349 70.8352C52.8926 70.8352 51.9883 71.0305 51.1832 71.3851C51.6937 72.6234 51.9883 73.977 51.9883 75.3935C51.9883 79.0682 50.1022 82.2888 47.2344 84.156Z" fill="#0D121D"/>
<path d="M73.8189 55.4831C77.5438 55.4831 80.5597 52.4673 80.5597 48.7408C80.5597 45.0206 77.5438 42 73.8189 42C70.0955 42 67.0781 45.0206 67.0781 48.7408C67.0781 52.4673 70.0955 55.4831 73.8189 55.4831Z" fill="#0D121D"/>
<path d="M73.8186 57.7759C70.1787 57.7759 67.2227 60.7289 67.2227 64.3734V67.2331H80.4143V64.3734C80.4145 60.7289 77.4631 57.7759 73.8186 57.7759Z" fill="#0D121D"/>
<path d="M61.9442 69.7683L44.5391 105.284V109H104.685V105.284L87.2799 69.7683H61.9442Z" fill="#0D121D"/>
<path d="M107.702 82.9255C111.859 82.9255 115.228 79.5565 115.228 75.4001C115.228 71.2449 111.859 67.8745 107.702 67.8745C103.542 67.8745 100.18 71.2451 100.18 75.4001C100.18 79.5565 103.542 82.9255 107.702 82.9255Z" fill="#0D121D"/>
<path d="M107.709 85.4922C104.447 85.4922 101.697 87.5738 100.734 90.5014L106.352 101.976H115.058V92.8398C115.058 88.7728 111.755 85.4922 107.709 85.4922Z" fill="#0D121D"/>
<path d="M95.3876 68.5378C99.1111 68.5378 102.129 65.522 102.129 61.7955C102.129 58.0753 99.1111 55.0547 95.3876 55.0547C91.6627 55.0547 88.6484 58.0753 88.6484 61.7955C88.6484 65.522 91.6627 68.5378 95.3876 68.5378Z" fill="#0D121D"/>
<path d="M95.389 70.8352C93.9947 70.8352 92.7168 71.2464 91.6562 71.9933L98.3372 85.6089H101.99V84.156C99.1219 82.2888 97.2359 79.0682 97.2359 75.3935C97.2359 73.977 97.5305 72.6234 98.041 71.3851C97.2357 71.0303 96.3313 70.8352 95.389 70.8352Z" fill="#0D121D"/>
</svg>
