<svg width="150" height="120" viewBox="0 0 150 120" fill="none" xmlns="http://www.w3.org/2000/svg">
<mask id="mask0_418_169" style="mask-type:luminance" maskUnits="userSpaceOnUse" x="42" y="42" width="66" height="67">
<path d="M107.25 42H42V109H107.25V42Z" fill="white"/>
</mask>
<g mask="url(#mask0_418_169)">
<path fill-rule="evenodd" clip-rule="evenodd" d="M77.3438 72.7083C82.6478 72.7083 86.1911 70.8315 88.5034 67.6659C90.5571 64.8541 91.4358 61.2396 92.1544 58.2836L92.2156 58.0313C93.0144 54.7507 93.6745 52.2111 95.0028 50.3924C96.1317 48.8471 97.9407 47.5833 101.812 47.5833C103.314 47.5833 104.531 46.3334 104.531 44.7917C104.531 43.2499 103.314 42 101.812 42C96.5085 42 92.9651 43.8768 90.6528 47.0424C88.5991 49.8542 87.7204 53.4688 87.0018 56.4248L86.9407 56.6771C86.1419 59.9577 85.4818 62.4973 84.1534 64.3159C83.0246 65.8612 81.2155 67.125 77.3438 67.125C75.8422 67.125 74.625 68.3749 74.625 69.9167C74.625 71.4585 75.8422 72.7083 77.3438 72.7083ZM68.1046 42.5618C66.9037 41.6363 65.1995 41.8857 64.2981 43.1188C63.3968 44.3519 63.6396 46.1018 64.8405 47.0273C65.9827 47.9076 66.9449 49.0102 67.6721 50.2723C68.3993 51.5344 68.8773 52.9312 69.0788 54.3829C69.2802 55.8347 69.2014 57.313 68.8464 58.7334C68.4914 60.1538 67.8675 61.4886 67.0102 62.6614C66.1089 63.8945 66.3518 65.6444 67.5527 66.57C68.7536 67.4955 70.4577 67.2461 71.3592 66.013C72.6449 64.2537 73.581 62.2516 74.1133 60.121C74.6457 57.9904 74.7642 55.7729 74.4619 53.5953C74.1595 51.4176 73.4426 49.3224 72.3519 47.4293C71.2611 45.5362 69.818 43.8822 68.1046 42.5618ZM61.0312 55.9583C61.0312 57.5001 59.814 58.75 58.3125 58.75C56.811 58.75 55.5938 57.5001 55.5938 55.9583C55.5938 54.4166 56.811 53.1667 58.3125 53.1667C59.814 53.1667 61.0312 54.4166 61.0312 55.9583ZM101.812 67.125C103.314 67.125 104.531 65.8751 104.531 64.3333C104.531 62.7916 103.314 61.5417 101.812 61.5417C100.311 61.5417 99.0938 62.7916 99.0938 64.3333C99.0938 65.8751 100.311 67.125 101.812 67.125ZM96.375 92.25C96.375 93.7918 95.1578 95.0417 93.6562 95.0417C92.1547 95.0417 90.9375 93.7918 90.9375 92.25C90.9375 90.7082 92.1547 89.4583 93.6562 89.4583C95.1578 89.4583 96.375 90.7082 96.375 92.25ZM95.1959 81.1958C93.7824 80.9881 92.3426 81.0685 90.959 81.4323C89.5757 81.796 88.2753 82.4359 87.1326 83.3155C85.9315 84.2404 84.2274 83.9903 83.3266 82.7567C82.4259 81.523 82.6695 79.7732 83.8709 78.8483C85.5848 77.529 87.5353 76.5689 89.6105 76.0234C91.6857 75.4777 93.8452 75.3573 95.9658 75.6686C98.0865 75.9802 100.127 76.7174 101.97 77.8386C103.813 78.9594 105.423 80.4424 106.708 82.2022C107.609 83.4359 107.365 85.1857 106.164 86.1106C104.962 87.0354 103.258 86.785 102.357 85.5514C101.501 84.3781 100.427 83.3895 99.1987 82.6422C97.9698 81.8949 96.6096 81.4035 95.1959 81.1958ZM60.235 67.9427C59.5842 67.2745 58.6485 66.9897 57.7482 67.1859C56.8479 67.382 56.1054 68.0325 55.775 68.9146L51.9903 79.0189L71.1983 98.742L81.0385 94.8557C81.8977 94.5163 82.5311 93.7539 82.722 92.8295C82.9131 91.9052 82.6358 90.9443 81.9849 90.276L60.235 67.9427ZM65.6444 100.935L49.8542 84.7214L42.1813 105.206C41.7956 106.236 42.0367 107.402 42.7964 108.182C43.5561 108.963 44.692 109.21 45.6948 108.814L65.6444 100.935Z" fill="#0D121D"/>
</g>
</svg>
