<svg width="150" height="120" viewBox="0 0 150 120" fill="none" xmlns="http://www.w3.org/2000/svg">
<g clip-path="url(#clip0_418_167)">
<path d="M123.094 42.2395H27.2509C27.2409 42.2395 27.2308 42.2395 27.2207 42.2395C27.1904 42.2395 27.1602 42.2395 27.14 42.2395C27.1198 42.2395 27.0895 42.2395 27.0694 42.2496C27.0492 42.2496 27.0189 42.2597 26.9987 42.2597C26.9685 42.2597 26.9483 42.2698 26.918 42.2799C26.8978 42.2799 26.8777 42.2899 26.8575 42.3C26.8272 42.3101 26.807 42.3101 26.7768 42.3202C26.7566 42.3303 26.7364 42.3303 26.7162 42.3404C26.6961 42.3505 26.6658 42.3606 26.6456 42.3707C26.6254 42.3807 26.6053 42.3908 26.5851 42.4009C26.5649 42.411 26.5447 42.4211 26.5246 42.4312C26.5044 42.4413 26.4741 42.4615 26.4539 42.4715C26.4338 42.4816 26.4136 42.4917 26.4035 42.5119C26.3833 42.5321 26.3631 42.5422 26.3329 42.5623C26.3127 42.5724 26.3026 42.5926 26.2824 42.6027C26.2623 42.6229 26.2421 42.6431 26.2219 42.6531C26.2017 42.6733 26.1916 42.6834 26.1715 42.7036C26.1513 42.7238 26.1412 42.7439 26.121 42.754C26.1008 42.7742 26.0907 42.7944 26.0706 42.8146C26.0605 42.8246 26.0504 42.8347 26.0504 42.8448C26.0403 42.8549 26.0403 42.865 26.0302 42.865C26.01 42.8852 25.9999 42.9154 25.9798 42.9356C25.9697 42.9558 25.9596 42.976 25.9495 42.9861C25.9394 43.0062 25.9192 43.0365 25.9091 43.0567C25.8991 43.0769 25.889 43.097 25.8789 43.1172C25.8688 43.1374 25.8587 43.1677 25.8486 43.1878C25.8385 43.208 25.8284 43.2282 25.8284 43.2585C25.8183 43.2786 25.8183 43.3089 25.8083 43.3291C25.7982 43.3493 25.7982 43.3795 25.7881 43.3997C25.7881 43.4199 25.778 43.4401 25.778 43.4703C25.778 43.5006 25.7679 43.5208 25.7679 43.551C25.7679 43.5712 25.7679 43.5914 25.7578 43.6116C25.7578 43.6418 25.7578 43.6721 25.7578 43.7024C25.7578 43.7125 25.7578 43.7226 25.7578 43.7326V99.7757C25.7578 100.361 26.1008 100.906 26.6355 101.148C27.1702 101.4 27.8058 101.309 28.2497 100.926L37.1985 93.329H40.7699C40.8405 92.8246 40.9414 92.3201 41.0625 91.8259C41.1533 91.4425 41.2542 91.0692 41.3752 90.6959C41.4156 90.5648 41.4559 90.4336 41.4963 90.3126H38.1569C38.1468 88.9707 38.1266 87.6491 38.1065 86.3477L39.761 84.6931L42.6666 87.5987C43.1508 86.6806 43.7259 85.8231 44.3615 85.0059L41.8797 82.5543L45.4511 78.983L47.9834 81.5153C48.8308 80.9099 49.7287 80.3752 50.6771 79.9313L47.5899 76.8442L51.3934 73.0407L55.1968 76.8442L53.0277 79.0132C54.1879 78.6499 55.3986 78.4079 56.6496 78.2968C57.1237 78.2566 57.608 78.2263 58.0923 78.2263C58.1528 78.2263 58.2134 78.2263 58.2739 78.2263C59.2222 78.2263 60.1605 78.307 61.0786 78.4482L59.4745 76.844L63.2778 73.0405L67.0813 76.844L64.5793 79.3661C65.5882 79.7495 66.5466 80.2135 67.4546 80.7684L69.2403 78.9828L73.0437 82.7861L71.591 84.2389C72.2669 85.0057 72.8722 85.8229 73.4069 86.7006L75.1826 84.9249L78.986 88.7283L77.4021 90.3123H75.0919C75.2936 90.9075 75.4551 91.5027 75.5963 92.1282C75.6165 92.219 75.6366 92.3098 75.6568 92.4006C75.7175 92.7134 75.7779 93.0261 75.8184 93.3389H113.157L122.106 100.936C122.388 101.168 122.731 101.299 123.084 101.299C123.296 101.299 123.518 101.248 123.72 101.158C124.255 100.906 124.598 100.371 124.598 99.7856V43.7528C124.608 42.9154 123.932 42.2395 123.094 42.2395ZM112.208 90.3224H108.647L106.831 88.5065L110.634 84.703L112.259 86.3274C112.239 87.6287 112.219 88.9605 112.208 90.3224ZM83.2839 88.7385L87.0873 84.9351L90.8908 88.7385L89.3068 90.3224H84.8577L83.2839 88.7385ZM47.4184 45.2661L49.2646 47.1124L45.4612 50.9158L41.6577 47.1124L43.5039 45.2661H47.4184ZM59.313 45.2661L61.1593 47.1124L57.3559 50.9158L53.5525 47.1124L55.3987 45.2661H59.313ZM71.2077 45.2661L73.0539 47.1124L69.2505 50.9158L65.447 47.1124L67.2934 45.2661H71.2077ZM83.1022 45.2661L84.9486 47.1124L81.1451 50.9158L77.3417 47.1124L79.1879 45.2661H83.1022ZM94.997 45.2661L96.8432 47.1124L93.0297 50.9057L89.2262 47.1023L91.0725 45.256L94.997 45.2661ZM106.892 45.2661L108.738 47.1124L104.934 50.9057L101.131 47.1023L102.977 45.256L106.892 45.2661ZM75.1928 56.8581L71.3893 53.0547L75.1928 49.2512L78.9962 53.0547L75.1928 56.8581ZM81.1349 55.1935L84.9384 58.9969L81.1349 62.8004L77.3316 58.9968L81.1349 55.1935ZM113.823 65.8068L110.877 68.7527L107.073 64.9492L110.877 61.1457L114.044 64.3136C113.974 64.8081 113.893 65.3023 113.823 65.8068ZM98.9821 68.7528L95.1786 64.9492L98.9821 61.1457L102.786 64.9492L98.9821 68.7528ZM104.934 67.0881L108.738 70.8916L104.934 74.7051L101.131 70.9016L104.934 67.0881ZM104.934 62.8105L101.131 59.007L104.934 55.2036L108.738 59.007L104.934 62.8105ZM98.9821 56.8581L95.1786 53.0547L98.9821 49.2512L102.786 53.0547L98.9821 56.8581ZM96.8432 58.9968L93.0297 62.8104L89.2262 59.0069L93.0297 55.2035L96.8432 58.9968ZM87.0873 56.8581L83.2839 53.0547L87.0873 49.2512L90.8908 53.0547L87.0873 56.8581ZM87.0873 61.1358L90.8908 64.9392L87.0873 68.7528L83.2839 64.9492L87.0873 61.1358ZM93.0297 67.0881L96.8332 70.8916L93.0297 74.7051L89.2262 70.9016L93.0297 67.0881ZM95.1786 76.844L98.9821 73.0405L102.786 76.844L98.9821 80.6474L95.1786 76.844ZM96.8432 82.7861L93.0297 86.5998L89.2262 82.7963L93.0297 78.9929L96.8432 82.7861ZM104.934 78.9828L108.506 82.5541L104.702 86.3576L101.131 82.7861L104.934 78.9828ZM107.073 76.844L110.877 73.0405L112.814 74.9775C112.723 76.1276 112.642 77.298 112.572 78.4884L110.635 80.4255L107.073 76.844ZM113.015 58.9968L115.649 56.3637C115.306 57.7257 114.983 59.1683 114.68 60.6716L113.015 58.9968ZM110.877 56.8581L107.073 53.0547L110.877 49.2512L114.68 53.0547L110.877 56.8581ZM67.1016 53.0547L63.2981 56.8581L59.4946 53.0547L63.2981 49.2512L67.1016 53.0547ZM55.2069 53.0547L51.4034 56.8581L47.6 53.0547L51.4034 49.2512L55.2069 53.0547ZM34.6763 56.3133L37.3599 58.9968L35.6549 60.7018C35.3623 59.1684 35.0294 57.6955 34.6763 56.3133ZM35.6952 53.0547L39.4987 49.2512L43.3022 53.0547L39.4987 56.8581L35.6952 53.0547ZM37.37 47.1023L33.5665 50.9057L32.7191 50.0583C31.8918 47.9497 31.0847 46.3961 30.3785 45.2661H35.5237L37.37 47.1023ZM36.5225 65.7665C36.4519 65.2821 36.3813 64.8081 36.3107 64.3439L39.5088 61.1457L43.3123 64.9492L39.5088 68.7527L36.5225 65.7665ZM41.6476 58.9968L45.4511 55.1934L49.2545 58.9968L45.4511 62.8003L41.6476 58.9968ZM51.4034 61.1358L55.2069 64.9392L51.4034 68.7528L47.6 64.9492L51.4034 61.1358ZM53.5423 58.9968L57.3457 55.1934L61.1492 58.9968L57.3457 62.8003L53.5423 58.9968ZM63.2981 61.1358L67.1016 64.9392L63.2981 68.7528L59.4946 64.9493L63.2981 61.1358ZM65.4369 58.9968L69.2404 55.1934L73.0438 58.9968L69.2404 62.8003L65.4369 58.9968ZM75.1928 61.1358L78.9962 64.9392L75.1928 68.7528L71.3893 64.9492L75.1928 61.1358ZM81.1349 67.0881L84.9384 70.8916L81.1349 74.7051L77.3316 70.9016L81.1349 67.0881ZM87.0873 73.0304L90.8908 76.8338L87.0873 80.6372L83.2839 76.8338L87.0873 73.0304ZM95.1786 88.7385L98.9821 84.9351L102.553 88.5065L100.738 90.3224H96.7524L95.1786 88.7385ZM117.606 50.1289L116.819 50.9158L113.015 47.1124L114.862 45.2661H119.815H119.967C119.704 45.6899 119.422 46.1842 119.129 46.7391C118.645 47.6673 118.131 48.7871 117.606 50.1289ZM28.7643 96.517V48.5853C29.3091 49.685 29.9043 51.0773 30.5096 52.8428C34.2425 63.7891 35.0798 79.5679 35.1101 91.1296L28.7643 96.517ZM39.7408 80.4153L37.7634 78.4379C37.6928 77.2676 37.6121 76.1276 37.5314 75.0077L39.5088 73.0303L43.3123 76.8338L39.7408 80.4153ZM45.4511 74.7051L41.6476 70.9016L45.4511 67.0981L49.2545 70.9016L45.4511 74.7051ZM57.3457 74.7051L53.5423 70.9016L57.3457 67.0981L61.1492 70.9016L57.3457 74.7051ZM65.4369 70.8916L69.2404 67.0881L73.0438 70.8916L69.2404 74.7051L65.4369 70.8916ZM71.3792 76.844L75.1826 73.0405L78.986 76.844L75.1826 80.6474L71.3792 76.844ZM77.3316 82.7861L81.1349 78.9828L84.9384 82.7861L81.1349 86.5896L77.3316 82.7861ZM121.581 96.517L115.235 91.1296C115.265 79.8504 116.073 64.4146 119.634 53.4683C120.3 51.4102 120.976 49.8162 121.581 48.5954V96.517H121.581Z" fill="#0D121D"/>
<path d="M72.7196 92.4008C72.5481 91.6844 72.3161 90.9884 72.0437 90.3225C71.8318 89.7978 71.5897 89.2934 71.3173 88.8091C71.2669 88.7082 71.2063 88.6176 71.1559 88.5167C70.6917 87.7197 70.1672 86.973 69.5719 86.2869C68.4824 85.0259 67.191 83.9464 65.7382 83.0989C65.6071 83.0283 65.486 82.9577 65.3548 82.8869C64.3964 82.3724 63.3773 81.9487 62.308 81.6562C61.4101 81.404 60.4719 81.2325 59.5135 81.1518C59.1099 81.1214 58.7064 81.1013 58.2927 81.1013C57.1022 81.1013 55.9521 81.2425 54.8424 81.5049C54.1664 81.6663 53.5106 81.8681 52.865 82.1203C51.8662 82.5137 50.9279 83.0081 50.0502 83.5932C48.6378 84.5316 47.3968 85.7119 46.3779 87.0739C45.7524 87.9011 45.2177 88.7991 44.7839 89.7576C44.6931 89.9492 44.6123 90.141 44.5316 90.3326C44.3198 90.8472 44.1382 91.3718 43.9868 91.9065C43.8557 92.3807 43.7447 92.8649 43.6539 93.3593C43.5026 94.2066 43.4219 95.0744 43.4219 95.9722C43.4219 104.184 50.0805 110.833 58.2826 110.833C66.4949 110.823 73.1535 104.164 73.1535 95.952C73.1535 95.0642 73.0727 94.1864 72.9214 93.3391C72.8608 93.0262 72.8004 92.7136 72.7196 92.4008ZM70.1268 95.952C70.1268 98.4037 69.3904 100.734 68.0183 102.701L64.3258 103.246C64.1341 103.276 63.9122 103.448 63.8314 103.63L62.3686 107.07C61.0772 107.544 59.7052 107.786 58.2826 107.786C56.8601 107.786 55.488 107.534 54.1967 107.07L52.7338 103.63C52.6531 103.448 52.4412 103.276 52.2395 103.246L48.547 102.701C47.1749 100.734 46.4384 98.4035 46.4384 95.952C46.4384 95.9117 46.4384 95.8713 46.4384 95.8208L49.1321 93.339L49.1725 93.2986C49.3137 93.1675 49.4045 92.9053 49.3642 92.7035L49.2229 91.9771L48.9001 90.3125L48.7185 89.4146L48.6479 89.0514C49.0211 88.5367 49.4348 88.0425 49.8989 87.5783C50.6051 86.8721 51.392 86.2668 52.2294 85.7623C53.0062 85.2982 53.8436 84.925 54.7011 84.6526L56.285 85.5405L57.6269 86.2971L57.9599 86.4787C58.1313 86.5796 58.4139 86.5796 58.5853 86.4787L61.844 84.6526C62.2676 84.7838 62.6813 84.9451 63.0849 85.1167C63.3472 85.2378 63.6196 85.369 63.8718 85.5001C64.8807 86.0449 65.8189 86.731 66.6462 87.5683C66.9186 87.8407 67.1708 88.1131 67.4029 88.4057C67.5744 88.6075 67.7358 88.8194 67.8871 89.0413L67.8064 89.4448L67.6349 90.3024L67.2414 92.2898L67.1606 92.7035C67.1204 92.8951 67.2111 93.1575 67.3523 93.2986L67.3927 93.339L70.0863 95.8208C70.1268 95.8713 70.1268 95.9117 70.1268 95.952Z" fill="#0D121D"/>
<path d="M63.7235 93.9643L62.8761 93.3488L61.2922 92.1988L58.7094 90.3221L58.5783 90.2213C58.4269 90.1103 58.1747 90.1103 58.0133 90.2112C58.0133 90.2112 58.0031 90.2112 58.0031 90.2213L57.872 90.3221L57.2465 90.7761L55.4305 92.0979L53.7054 93.3488L52.8579 93.9643C52.6965 94.0753 52.6158 94.3275 52.6763 94.509L54.6437 100.562C54.7042 100.754 54.9161 100.905 55.1077 100.905H61.4738C61.6653 100.905 61.8773 100.754 61.9378 100.562L63.9051 94.509C63.9657 94.3174 63.8849 94.0753 63.7235 93.9643Z" fill="#0D121D"/>
</g>
<defs>
<clipPath id="clip0_418_167">
<rect width="98.3415" height="84" fill="white" transform="translate(26 33)"/>
</clipPath>
</defs>
</svg>
