<svg width="150" height="120" viewBox="0 0 150 120" fill="none" xmlns="http://www.w3.org/2000/svg">
<path d="M100.515 56.3038C104.658 56.3038 108.017 52.8781 108.017 48.6524C108.017 44.4266 104.658 41.001 100.515 41.001C96.3708 41.001 93.0117 44.4266 93.0117 48.6524C93.0117 52.8781 96.3708 56.3038 100.515 56.3038Z" fill="#0D121D"/>
<path d="M122.056 71.0848C125.828 71.0848 128.886 67.9664 128.886 64.1197C128.886 60.2729 125.828 57.1545 122.056 57.1545C118.284 57.1545 115.227 60.2729 115.227 64.1197C115.227 67.9664 118.284 71.0848 122.056 71.0848Z" fill="#0D121D"/>
<path d="M116.905 74.7821L104.474 69.3126L93.2879 59.7382L99.8424 63.2038C99.7624 61.6193 98.9714 60.0929 97.5734 59.1517L90.0305 54.0733C87.6945 52.5006 84.5506 53.1569 83.0084 55.5392L69.784 75.9672C69.0397 77.2471 68.1891 79.1614 69.0145 80.8083L76.0129 94.1284L71.8627 112.032C71.3596 114.202 72.6769 116.377 74.805 116.89C76.933 117.403 79.0662 116.06 79.5693 113.89L84.0644 94.4982C84.2867 93.5392 84.1575 92.5307 83.7012 91.6621L80.547 85.659L89.6164 93.7371L96.851 114.323C97.5891 116.423 99.8568 117.514 101.914 116.762C103.973 116.009 105.043 113.698 104.306 111.598L96.7373 90.0624C96.5181 89.4386 96.1518 88.8796 95.6706 88.4342L88.8036 82.0799L94.7721 72.8601L88.9173 65.0485L100.485 74.9493C100.738 75.1659 101.02 75.3436 101.323 75.4771L114.212 81.1478C115.935 81.9064 117.936 81.096 118.68 79.3381C119.423 77.5804 118.629 75.5405 116.905 74.7821Z" fill="#0D121D"/>
<path d="M69.9 60.3988C69.3014 61.1883 68.7944 62.0389 68.374 62.9306C68.4143 63.0656 68.3977 63.2061 68.3489 63.3396C69.2038 64.4927 69.4516 66.0632 68.8348 67.4774L64.9515 76.3979C64.4293 77.6006 63.3753 78.471 62.1164 78.7465C61.8351 78.8089 61.5525 78.8372 61.2712 78.8372C60.2911 78.8372 59.3316 78.4737 58.5865 77.7936L51.591 71.4206L48.8132 81.883L50.3351 95.7024L62.9058 109.052C64.67 110.92 64.6115 113.892 62.7751 115.689C61.8824 116.563 60.7337 116.999 59.5864 116.999C58.3779 116.999 57.1706 116.516 56.2669 115.555L42.6142 101.06C41.9111 100.317 41.4725 99.3586 41.3596 98.3321L40.0035 86.0192L32.2088 93.6957V109.632C32.2088 112.224 30.1468 114.328 27.6041 114.328C25.063 114.328 23.0009 112.224 23.0009 109.632V91.7068C23.0009 90.4331 23.5076 89.2147 24.4057 88.3301L35.442 77.4587C35.5311 77.3707 35.6369 77.3068 35.7316 77.2259L40.2694 63.6508C40.2123 63.6125 40.154 63.584 40.0996 63.5415L29.8625 55.7032C28.0843 54.34 27.7251 51.7642 29.0618 49.9494C30.3943 48.1361 32.9188 47.7696 34.7012 49.1315L44.5554 56.6788L53.932 62.6044L53.9251 62.6314C54.1283 62.7593 54.3246 62.8969 54.5098 63.0646L59.8317 67.9139L61.4733 64.1465C62.2725 62.3077 64.2316 61.3719 66.0835 61.8234L66.1058 61.7936C66.2269 61.6317 66.4135 61.5565 66.5974 61.5565C67.029 61.1745 67.8728 60.3694 68.7068 59.2717C69.1843 58.6355 69.5952 57.9909 69.9224 57.3491C69.9977 57.1475 70.6631 55.3398 71.3134 51.6038C71.6016 49.9509 71.8858 48.6801 72.2311 47.6036C72.2033 47.5113 72.213 47.4034 72.277 47.3195C72.2965 47.2953 72.3202 47.2784 72.3438 47.2613C72.8201 45.8882 73.4159 44.829 74.289 43.6729C75.3792 42.2313 76.9735 41.2487 78.5552 41.0429C79.9782 40.8583 81.3372 41.2701 82.5863 42.2598C83.7796 43.19 84.5133 44.4665 84.7055 45.9476C84.9185 47.609 84.4187 49.4819 83.3952 50.8324C81.7898 52.9553 80.2721 54.0671 76.6324 55.781V55.7825C76.6309 55.7838 76.6254 55.7866 76.6254 55.7866C73.0551 57.4694 71.5346 58.6182 71.5306 58.621C71.5236 58.6253 70.7757 59.2415 69.9 60.3988Z" fill="#0D121D"/>
<path d="M52.975 58.3912C48.6055 58.3912 45.0634 54.7788 45.0634 50.3228C45.0634 45.8667 48.6055 42.2544 52.975 42.2544C57.3445 42.2544 60.8867 45.8667 60.8867 50.3228C60.8867 54.7788 57.3445 58.3912 52.975 58.3912Z" fill="#0D121D"/>
</svg>
